<svg xmlns="http://www.w3.org/2000/svg" xmlns:svg="http://www.w3.org/2000/svg" xmlns:xlink="http://www.w3.org/1999/xlink" id="svg5" width="210mm" height="297mm" version="1.1" viewBox="0 0 210 297"><defs id="defs2"><rect id="rect60571" width="210" height="80" x="350" y="60"/><rect id="rect56297" width="220" height="80" x="60" y="60"/><rect id="rect48818" width="100" height="50" x="300" y="890"/><rect id="rect31439" width="111.138" height="49.559" x="720" y="1010"/><rect id="rect17624" width="150" height="50" x="610" y="1080"/><rect id="rect4329" width="180" height="50" x="650" y="880"/><rect id="rect53536" width="100" height="50" x="170" y="260"/><rect id="rect50836" width="80" height="40" x="180" y="320"/><rect id="rect48945" width="70" height="50" x="160" y="380"/><linearGradient id="linearGradient45989"><stop id="stop45985" offset="0" style="stop-color:#3cff00;stop-opacity:1"/><stop id="stop45987" offset="1" style="stop-color:#3cff00;stop-opacity:0"/></linearGradient><rect id="rect42162" width="80" height="40" x="160" y="390"/><rect id="rect38550" width="70" height="40" x="170" y="440"/><rect id="rect32868" width="90" height="50" x="170" y="510"/><rect id="rect29760" width="80" height="40" x="170" y="570"/><rect id="rect28104" width="100" height="40" x="170" y="620"/><rect id="rect21842" width="140" height="60" x="170" y="690"/><rect id="rect8082" width="90" height="20" x="290" y="990"/><marker id="Arrow2Lend" orient="auto" refX="0" refY="0" style="overflow:visible"><path id="path1933" d="M 8.7185878,4.0337352 L -2.2072895,0.016013256 L 8.7185884,-4.0017078 C 6.9730900,-1.6296469 6.9831476,1.6157441 8.7185878,4.0337352 z" transform="scale(1.1) rotate(180) translate(1,0)" style="stroke:context-stroke;fill-rule:evenodd;fill:context-stroke;stroke-width:.625;stroke-linejoin:round"/></marker><linearGradient id="linearGradient1236"><stop id="stop1234" offset="0" style="stop-color:#000;stop-opacity:1"/></linearGradient><marker id="Arrow2Lend-9" orient="auto" refX="0" refY="0" style="overflow:visible"><path id="path1933-0" d="M 8.7185878,4.0337352 -2.2072895,0.01601326 8.7185884,-4.0017078 c -1.7454984,2.3720609 -1.7354408,5.6174519 -6e-7,8.035443 z" transform="matrix(-1.1,0,0,-1.1,-1.1,0)" style="fill:context-stroke;fill-rule:evenodd;stroke:context-stroke;stroke-width:.625;stroke-linejoin:round"/></marker><marker id="Arrow2Lend-7" orient="auto" refX="0" refY="0" style="overflow:visible"><path id="path1933-8" d="M 8.7185878,4.0337352 -2.2072895,0.01601326 8.7185884,-4.0017078 c -1.7454984,2.3720609 -1.7354408,5.6174519 -6e-7,8.035443 z" transform="matrix(-1.1,0,0,-1.1,-1.1,0)" style="fill:context-stroke;fill-rule:evenodd;stroke:context-stroke;stroke-width:.625;stroke-linejoin:round"/></marker><marker id="Arrow2Lend-2" orient="auto" refX="0" refY="0" style="overflow:visible"><path id="path1933-86" d="M 8.7185878,4.0337352 -2.2072895,0.01601326 8.7185884,-4.0017078 c -1.7454984,2.3720609 -1.7354408,5.6174519 -6e-7,8.035443 z" transform="matrix(-1.1,0,0,-1.1,-1.1,0)" style="fill:context-stroke;fill-rule:evenodd;stroke:context-stroke;stroke-width:.625;stroke-linejoin:round"/></marker><marker id="Arrow2Lend-0" orient="auto" refX="0" refY="0" style="overflow:visible"><path id="path1933-3" d="M 8.7185878,4.0337352 -2.2072895,0.01601326 8.7185884,-4.0017078 c -1.7454984,2.3720609 -1.7354408,5.6174519 -6e-7,8.035443 z" transform="matrix(-1.1,0,0,-1.1,-1.1,0)" style="fill:context-stroke;fill-rule:evenodd;stroke:context-stroke;stroke-width:.625;stroke-linejoin:round"/></marker><marker id="Arrow2Lend-98" orient="auto" refX="0" refY="0" style="overflow:visible"><path id="path1933-6" d="M 8.7185878,4.0337352 -2.2072895,0.01601326 8.7185884,-4.0017078 c -1.7454984,2.3720609 -1.7354408,5.6174519 -6e-7,8.035443 z" transform="matrix(-1.1,0,0,-1.1,-1.1,0)" style="fill:context-stroke;fill-rule:evenodd;stroke:context-stroke;stroke-width:.625;stroke-linejoin:round"/></marker><marker id="Arrow2Lend-98-8" orient="auto" refX="0" refY="0" style="overflow:visible"><path id="path1933-6-2" d="M 8.7185878,4.0337352 -2.2072895,0.01601326 8.7185884,-4.0017078 c -1.7454984,2.3720609 -1.7354408,5.6174519 -6e-7,8.035443 z" transform="matrix(-1.1,0,0,-1.1,-1.1,0)" style="fill:context-stroke;fill-rule:evenodd;stroke:context-stroke;stroke-width:.625;stroke-linejoin:round"/></marker><marker id="Arrow2Lend-98-8-3" orient="auto" refX="0" refY="0" style="overflow:visible"><path id="path1933-6-2-1" d="M 8.7185878,4.0337352 -2.2072895,0.01601326 8.7185884,-4.0017078 c -1.7454984,2.3720609 -1.7354408,5.6174519 -6e-7,8.035443 z" transform="matrix(-1.1,0,0,-1.1,-1.1,0)" style="fill:context-stroke;fill-rule:evenodd;stroke:context-stroke;stroke-width:.625;stroke-linejoin:round"/></marker><marker id="Arrow2Lend-98-8-3-6" orient="auto" refX="0" refY="0" style="overflow:visible"><path id="path1933-6-2-1-7" d="M 8.7185878,4.0337352 -2.2072895,0.01601326 8.7185884,-4.0017078 c -1.7454984,2.3720609 -1.7354408,5.6174519 -6e-7,8.035443 z" transform="matrix(-1.1,0,0,-1.1,-1.1,0)" style="fill:context-stroke;fill-rule:evenodd;stroke:context-stroke;stroke-width:.625;stroke-linejoin:round"/></marker><marker id="Arrow2Lend-98-8-3-6-6" orient="auto" refX="0" refY="0" style="overflow:visible"><path id="path1933-6-2-1-7-5" d="M 8.7185878,4.0337352 -2.2072895,0.01601326 8.7185884,-4.0017078 c -1.7454984,2.3720609 -1.7354408,5.6174519 -6e-7,8.035443 z" transform="matrix(-1.1,0,0,-1.1,-1.1,0)" style="fill:context-stroke;fill-rule:evenodd;stroke:context-stroke;stroke-width:.625;stroke-linejoin:round"/></marker><marker id="Arrow2Lend-98-8-3-6-6-9" orient="auto" refX="0" refY="0" style="overflow:visible"><path id="path1933-6-2-1-7-5-3" d="M 8.7185878,4.0337352 -2.2072895,0.01601326 8.7185884,-4.0017078 c -1.7454984,2.3720609 -1.7354408,5.6174519 -6e-7,8.035443 z" transform="matrix(-1.1,0,0,-1.1,-1.1,0)" style="fill:context-stroke;fill-rule:evenodd;stroke:context-stroke;stroke-width:.625;stroke-linejoin:round"/></marker><marker id="Arrow2Lend-76" orient="auto" refX="0" refY="0" style="overflow:visible"><path id="path1933-9" d="M 8.7185878,4.0337352 -2.2072895,0.01601326 8.7185884,-4.0017078 c -1.7454984,2.3720609 -1.7354408,5.6174519 -6e-7,8.035443 z" transform="matrix(-1.1,0,0,-1.1,-1.1,0)" style="fill:context-stroke;fill-rule:evenodd;stroke:context-stroke;stroke-width:.625;stroke-linejoin:round"/></marker><marker id="Arrow2Lend-04" orient="auto" refX="0" refY="0" style="overflow:visible"><path id="path1933-80" d="M 8.7185878,4.0337352 -2.2072895,0.01601326 8.7185884,-4.0017078 c -1.7454984,2.3720609 -1.7354408,5.6174519 -6e-7,8.035443 z" transform="matrix(-1.1,0,0,-1.1,-1.1,0)" style="fill:context-stroke;fill-rule:evenodd;stroke:context-stroke;stroke-width:.625;stroke-linejoin:round"/></marker><marker id="Arrow2Lend-74" orient="auto" refX="0" refY="0" style="overflow:visible"><path id="path1933-63" d="M 8.7185878,4.0337352 -2.2072895,0.01601326 8.7185884,-4.0017078 c -1.7454984,2.3720609 -1.7354408,5.6174519 -6e-7,8.035443 z" transform="matrix(-1.1,0,0,-1.1,-1.1,0)" style="fill:context-stroke;fill-rule:evenodd;stroke:context-stroke;stroke-width:.625;stroke-linejoin:round"/></marker><marker id="Arrow2Lend-04-4" orient="auto" refX="0" refY="0" style="overflow:visible"><path id="path1933-80-4" d="M 8.7185878,4.0337352 -2.2072895,0.01601326 8.7185884,-4.0017078 c -1.7454984,2.3720609 -1.7354408,5.6174519 -6e-7,8.035443 z" transform="matrix(-1.1,0,0,-1.1,-1.1,0)" style="fill:context-stroke;fill-rule:evenodd;stroke:context-stroke;stroke-width:.625;stroke-linejoin:round"/></marker><marker id="Arrow2Lend-79" orient="auto" refX="0" refY="0" style="overflow:visible"><path id="path1933-94" d="M 8.7185878,4.0337352 -2.2072895,0.01601326 8.7185884,-4.0017078 c -1.7454984,2.3720609 -1.7354408,5.6174519 -6e-7,8.035443 z" transform="matrix(-1.1,0,0,-1.1,-1.1,0)" style="fill:context-stroke;fill-rule:evenodd;stroke:context-stroke;stroke-width:.625;stroke-linejoin:round"/></marker><marker id="Arrow2Lend-04-40" orient="auto" refX="0" refY="0" style="overflow:visible"><path id="path1933-80-2" d="M 8.7185878,4.0337352 -2.2072895,0.01601326 8.7185884,-4.0017078 c -1.7454984,2.3720609 -1.7354408,5.6174519 -6e-7,8.035443 z" transform="matrix(-1.1,0,0,-1.1,-1.1,0)" style="fill:context-stroke;fill-rule:evenodd;stroke:context-stroke;stroke-width:.625;stroke-linejoin:round"/></marker><marker id="Arrow2Lend-5" orient="auto" refX="0" refY="0" style="overflow:visible"><path id="path1933-30" d="M 8.7185878,4.0337352 -2.2072895,0.01601326 8.7185884,-4.0017078 c -1.7454984,2.3720609 -1.7354408,5.6174519 -6e-7,8.035443 z" transform="matrix(-1.1,0,0,-1.1,-1.1,0)" style="fill:context-stroke;fill-rule:evenodd;stroke:context-stroke;stroke-width:.625;stroke-linejoin:round"/></marker><marker id="Arrow2Lend-04-7" orient="auto" refX="0" refY="0" style="overflow:visible"><path id="path1933-80-0" d="M 8.7185878,4.0337352 -2.2072895,0.01601326 8.7185884,-4.0017078 c -1.7454984,2.3720609 -1.7354408,5.6174519 -6e-7,8.035443 z" transform="matrix(-1.1,0,0,-1.1,-1.1,0)" style="fill:context-stroke;fill-rule:evenodd;stroke:context-stroke;stroke-width:.625;stroke-linejoin:round"/></marker><marker id="Arrow2Lend-74-5" orient="auto" refX="0" refY="0" style="overflow:visible"><path id="path1933-63-9" d="M 8.7185878,4.0337352 -2.2072895,0.01601326 8.7185884,-4.0017078 c -1.7454984,2.3720609 -1.7354408,5.6174519 -6e-7,8.035443 z" transform="matrix(-1.1,0,0,-1.1,-1.1,0)" style="fill:context-stroke;fill-rule:evenodd;stroke:context-stroke;stroke-width:.625;stroke-linejoin:round"/></marker><marker id="Arrow2Lend-04-4-6" orient="auto" refX="0" refY="0" style="overflow:visible"><path id="path1933-80-4-6" d="M 8.7185878,4.0337352 -2.2072895,0.01601326 8.7185884,-4.0017078 c -1.7454984,2.3720609 -1.7354408,5.6174519 -6e-7,8.035443 z" transform="matrix(-1.1,0,0,-1.1,-1.1,0)" style="fill:context-stroke;fill-rule:evenodd;stroke:context-stroke;stroke-width:.625;stroke-linejoin:round"/></marker><marker id="Arrow2Lend-79-5" orient="auto" refX="0" refY="0" style="overflow:visible"><path id="path1933-94-0" d="M 8.7185878,4.0337352 -2.2072895,0.01601326 8.7185884,-4.0017078 c -1.7454984,2.3720609 -1.7354408,5.6174519 -6e-7,8.035443 z" transform="matrix(-1.1,0,0,-1.1,-1.1,0)" style="fill:context-stroke;fill-rule:evenodd;stroke:context-stroke;stroke-width:.625;stroke-linejoin:round"/></marker><marker id="Arrow2Lend-04-40-6" orient="auto" refX="0" refY="0" style="overflow:visible"><path id="path1933-80-2-6" d="M 8.7185878,4.0337352 -2.2072895,0.01601326 8.7185884,-4.0017078 c -1.7454984,2.3720609 -1.7354408,5.6174519 -6e-7,8.035443 z" transform="matrix(-1.1,0,0,-1.1,-1.1,0)" style="fill:context-stroke;fill-rule:evenodd;stroke:context-stroke;stroke-width:.625;stroke-linejoin:round"/></marker><marker id="Arrow2Lend-79-5-7" orient="auto" refX="0" refY="0" style="overflow:visible"><path id="path1933-94-0-3" d="M 8.7185878,4.0337352 -2.2072895,0.01601326 8.7185884,-4.0017078 c -1.7454984,2.3720609 -1.7354408,5.6174519 -6e-7,8.035443 z" transform="matrix(-1.1,0,0,-1.1,-1.1,0)" style="fill:context-stroke;fill-rule:evenodd;stroke:context-stroke;stroke-width:.625;stroke-linejoin:round"/></marker><marker id="Arrow2Lend-04-40-6-2" orient="auto" refX="0" refY="0" style="overflow:visible"><path id="path1933-80-2-6-6" d="M 8.7185878,4.0337352 -2.2072895,0.01601326 8.7185884,-4.0017078 c -1.7454984,2.3720609 -1.7354408,5.6174519 -6e-7,8.035443 z" transform="matrix(-1.1,0,0,-1.1,-1.1,0)" style="fill:context-stroke;fill-rule:evenodd;stroke:context-stroke;stroke-width:.625;stroke-linejoin:round"/></marker><marker id="Arrow2Lend-6" orient="auto" refX="0" refY="0" style="overflow:visible"><path id="path1933-4" d="M 8.7185878,4.0337352 -2.2072895,0.01601326 8.7185884,-4.0017078 c -1.7454984,2.3720609 -1.7354408,5.6174519 -6e-7,8.035443 z" transform="matrix(-1.1,0,0,-1.1,-1.1,0)" style="fill:context-stroke;fill-rule:evenodd;stroke:context-stroke;stroke-width:.625;stroke-linejoin:round"/></marker><marker id="Arrow2Lend-93" orient="auto" refX="0" refY="0" style="overflow:visible"><path id="path1933-65" d="M 8.7185878,4.0337352 -2.2072895,0.01601326 8.7185884,-4.0017078 c -1.7454984,2.3720609 -1.7354408,5.6174519 -6e-7,8.035443 z" transform="matrix(-1.1,0,0,-1.1,-1.1,0)" style="fill:context-stroke;fill-rule:evenodd;stroke:context-stroke;stroke-width:.625;stroke-linejoin:round"/></marker><marker id="Arrow2Lend-93-9" orient="auto" refX="0" refY="0" style="overflow:visible"><path id="path1933-65-1" d="M 8.7185878,4.0337352 -2.2072895,0.01601326 8.7185884,-4.0017078 c -1.7454984,2.3720609 -1.7354408,5.6174519 -6e-7,8.035443 z" transform="matrix(-1.1,0,0,-1.1,-1.1,0)" style="fill:context-stroke;fill-rule:evenodd;stroke:context-stroke;stroke-width:.625;stroke-linejoin:round"/></marker><marker id="Arrow2Lend-93-3" orient="auto" refX="0" refY="0" style="overflow:visible"><path id="path1933-65-2" d="M 8.7185878,4.0337352 -2.2072895,0.01601326 8.7185884,-4.0017078 c -1.7454984,2.3720609 -1.7354408,5.6174519 -6e-7,8.035443 z" transform="matrix(-1.1,0,0,-1.1,-1.1,0)" style="fill:context-stroke;fill-rule:evenodd;stroke:context-stroke;stroke-width:.625;stroke-linejoin:round"/></marker><marker id="Arrow2Lend-93-3-0" orient="auto" refX="0" refY="0" style="overflow:visible"><path id="path1933-65-2-7" d="M 8.7185878,4.0337352 -2.2072895,0.01601326 8.7185884,-4.0017078 c -1.7454984,2.3720609 -1.7354408,5.6174519 -6e-7,8.035443 z" transform="matrix(-1.1,0,0,-1.1,-1.1,0)" style="fill:context-stroke;fill-rule:evenodd;stroke:context-stroke;stroke-width:.625;stroke-linejoin:round"/></marker><marker id="Arrow2Lend-93-3-9" orient="auto" refX="0" refY="0" style="overflow:visible"><path id="path1933-65-2-3" d="M 8.7185878,4.0337352 -2.2072895,0.01601326 8.7185884,-4.0017078 c -1.7454984,2.3720609 -1.7354408,5.6174519 -6e-7,8.035443 z" transform="matrix(-1.1,0,0,-1.1,-1.1,0)" style="fill:context-stroke;fill-rule:evenodd;stroke:context-stroke;stroke-width:.625;stroke-linejoin:round"/></marker><marker id="Arrow2Lend-98-4" orient="auto" refX="0" refY="0" style="overflow:visible"><path id="path1933-6-6" d="M 8.7185878,4.0337352 -2.2072895,0.01601326 8.7185884,-4.0017078 c -1.7454984,2.3720609 -1.7354408,5.6174519 -6e-7,8.035443 z" transform="matrix(-1.1,0,0,-1.1,-1.1,0)" style="fill:context-stroke;fill-rule:evenodd;stroke:context-stroke;stroke-width:.625;stroke-linejoin:round"/></marker><marker id="Arrow2Lend-8" orient="auto" refX="0" refY="0" style="overflow:visible"><path id="path1933-81" d="M 8.7185878,4.0337352 -2.2072895,0.01601326 8.7185884,-4.0017078 c -1.7454984,2.3720609 -1.7354408,5.6174519 -6e-7,8.035443 z" transform="matrix(-1.1,0,0,-1.1,-1.1,0)" style="fill:context-stroke;fill-rule:evenodd;stroke:context-stroke;stroke-width:.625;stroke-linejoin:round"/></marker><marker id="Arrow2Lend-04-9" orient="auto" refX="0" refY="0" style="overflow:visible"><path id="path1933-80-5" d="M 8.7185878,4.0337352 -2.2072895,0.01601326 8.7185884,-4.0017078 c -1.7454984,2.3720609 -1.7354408,5.6174519 -6e-7,8.035443 z" transform="matrix(-1.1,0,0,-1.1,-1.1,0)" style="fill:context-stroke;fill-rule:evenodd;stroke:context-stroke;stroke-width:.625;stroke-linejoin:round"/></marker><linearGradient id="linearGradient45993" x1="184.356" x2="216.36" y1="404.837" y2="404.837" gradientUnits="userSpaceOnUse" xlink:href="#linearGradient45989"/><marker id="Arrow2Lend-7-3" orient="auto" refX="0" refY="0" style="overflow:visible"><path id="path1933-8-1" d="M 8.7185878,4.0337352 -2.2072895,0.01601326 8.7185884,-4.0017078 c -1.7454984,2.3720609 -1.7354408,5.6174519 -6e-7,8.035443 z" transform="matrix(-1.1,0,0,-1.1,-1.1,0)" style="fill:context-stroke;fill-rule:evenodd;stroke:context-stroke;stroke-width:.625;stroke-linejoin:round"/></marker><rect id="rect31439-4" width="102.021" height="39.947" x="720" y="1010"/><marker id="Arrow2Lend-8-1" orient="auto" refX="0" refY="0" style="overflow:visible"><path id="path1933-81-6" d="M 8.7185878,4.0337352 -2.2072895,0.01601326 8.7185884,-4.0017078 c -1.7454984,2.3720609 -1.7354408,5.6174519 -6e-7,8.035443 z" transform="matrix(-1.1,0,0,-1.1,-1.1,0)" style="fill:context-stroke;fill-rule:evenodd;stroke:context-stroke;stroke-width:.625;stroke-linejoin:round"/></marker><rect id="rect53536-6" width="100" height="50" x="170" y="260"/><marker id="Arrow2Lend-743" orient="auto" refX="0" refY="0" style="overflow:visible"><path id="path1933-47" d="M 8.7185878,4.0337352 -2.2072895,0.01601326 8.7185884,-4.0017078 c -1.7454984,2.3720609 -1.7354408,5.6174519 -6e-7,8.035443 z" transform="matrix(-1.1,0,0,-1.1,-1.1,0)" style="fill:context-stroke;fill-rule:evenodd;stroke:context-stroke;stroke-width:.625;stroke-linejoin:round"/></marker></defs><g id="layer1"><rect id="rect57" width="101.55" height="51.733" x="19.16" y="16.095" style="fill:none;stroke-width:.264583"/><rect id="rect10214-3-7-1" width="32.508" height="8.127" x="77.558" y="166.518" style="fill:none;fill-opacity:1;stroke:#000;stroke-width:.19413;stroke-miterlimit:4;stroke-dasharray:none;stroke-opacity:1"/><rect id="rect10214-3-7-1-0" width="32.508" height="8.127" x="77.558" y="154.327" style="fill:none;fill-opacity:1;stroke:#000;stroke-width:.19413;stroke-miterlimit:4;stroke-dasharray:none;stroke-opacity:1"/><rect id="rect10214-3-7-1-0-1" width="32.508" height="8.127" x="77.558" y="142.136" style="fill:none;fill-opacity:1;stroke:#000;stroke-width:.19413;stroke-miterlimit:4;stroke-dasharray:none;stroke-opacity:1"/><rect id="rect10214-3-7-1-7" width="32.508" height="8.127" x="118.194" y="223.408" style="fill:none;fill-opacity:1;stroke:#000;stroke-width:.19413;stroke-miterlimit:4;stroke-dasharray:none;stroke-opacity:1"/><rect id="rect10214-3-7-1-7-6" width="32.508" height="8.127" x="101.94" y="264.043" style="fill:none;fill-opacity:1;stroke:#000;stroke-width:.19413;stroke-miterlimit:4;stroke-dasharray:none;stroke-opacity:1"/><rect id="rect10214-3-7-1-7-2" width="32.508" height="8.127" x="77.558" y="203.09" style="fill:none;fill-opacity:1;stroke:#000;stroke-width:.19413;stroke-miterlimit:4;stroke-dasharray:none;stroke-opacity:1"/><rect id="rect10214-3-7-1-0-2" width="32.508" height="8.127" x="77.558" y="190.899" style="fill:none;fill-opacity:1;stroke:#000;stroke-width:.19413;stroke-miterlimit:4;stroke-dasharray:none;stroke-opacity:1"/><rect id="rect10214-3-7-1-0-1-7" width="32.508" height="8.127" x="77.558" y="178.708" style="fill:none;fill-opacity:1;stroke:#000;stroke-width:.19413;stroke-miterlimit:4;stroke-dasharray:none;stroke-opacity:1"/><rect id="rect10214-3-7-1-0-1-0" width="32.508" height="8.127" x="77.558" y="129.946" style="fill:none;fill-opacity:1;stroke:#000;stroke-width:.194283;stroke-miterlimit:4;stroke-dasharray:none;stroke-opacity:1"/><path id="path12604" d="m 106.00314,257.94764 h 24.38132 l 14.22244,-20.31777 h -20.31778 l -6.09533,8.12711 -6.09532,-8.12711 H 91.780671 Z" style="fill:red;fill-opacity:.396761;stroke:#000;stroke-width:.172668px;stroke-linecap:butt;stroke-linejoin:miter;stroke-opacity:1"/><path id="path403" d="m 118.19379,272.17009 v 4.06355 H 77.558229 v -44.6991 h 26.413121 v 6.09533" style="fill:none;stroke:#000;stroke-width:.203177px;stroke-linecap:butt;stroke-linejoin:miter;stroke-opacity:1;marker-end:url(#Arrow2Lend)"/><path id="path405" d="m 118.19379,257.54129 v 6.09532" style="fill:none;stroke:#000;stroke-width:.203177px;stroke-linecap:butt;stroke-linejoin:miter;stroke-opacity:1;marker-end:url(#Arrow2Lend-0)"/><path id="path407" d="m 134.44801,231.53454 v 6.09533" style="fill:none;stroke:#000;stroke-width:.203177px;stroke-linecap:butt;stroke-linejoin:miter;stroke-opacity:1;marker-end:url(#Arrow2Lend-98)"/><path id="path459" d="M 53.176902,288.4243 H 164.92467 V 115.72343 h -4.06355 l 0.21019,168.63732 H 57.030273 l 0.210185,-168.63732 h -4.063554 z" style="fill:#3cff00;fill-opacity:.5;stroke:#000;stroke-width:.197852px;stroke-linecap:butt;stroke-linejoin:miter;stroke-opacity:1"/><path id="path655" d="m 510,320 -45,25.98076 -45,25.98076 0,-51.96152 0,-51.96152 45,25.98076 z" transform="matrix(0.09030122,0,0,0.07820316,96.521476,108.98426)" style="fill:none;fill-rule:evenodd;stroke:#000;stroke-width:2.31193;stroke-miterlimit:4;stroke-dasharray:none;stroke-opacity:1"/><path id="path1900" d="m 110.06669,134.00927 h 24.38133" style="fill:none;stroke:#000;stroke-width:.170703px;stroke-linecap:butt;stroke-linejoin:miter;stroke-opacity:1;marker-end:url(#Arrow2Lend)"/><path id="path1900-5" d="m 142.57513,134.00927 h 18.28599" style="fill:none;stroke:#000;stroke-width:.147833px;stroke-linecap:butt;stroke-linejoin:miter;stroke-opacity:1;marker-end:url(#Arrow2Lend-04)"/><rect id="rect10214-3-7-1-0-1-0-5" width="32.508" height="8.127" x="77.558" y="117.755" style="fill:none;fill-opacity:1;stroke:#000;stroke-width:.194283;stroke-miterlimit:4;stroke-dasharray:none;stroke-opacity:1"/><rect id="rect10214-3-7-1-0-1-0-5-4" width="72.76" height="39.688" x="-113.506" y="7.408" transform="rotate(-90)" style="fill:none;fill-opacity:1;stroke:#000;stroke-width:.642307;stroke-miterlimit:4;stroke-dasharray:none;stroke-opacity:1"/><rect id="rect10214-3-7-1-0-1-0-5-4-7" width="85.99" height="39.688" x="-211.137" y="7.687" transform="rotate(-90)" style="fill:none;fill-opacity:1;stroke:#000;stroke-width:.698261;stroke-miterlimit:4;stroke-dasharray:none;stroke-opacity:1"/><path id="path655-0" d="m 510,320 -45,25.98076 -45,25.98076 0,-51.96152 0,-51.96152 45,25.98076 z" transform="matrix(0.09030122,0,0,0.07820316,96.521477,96.793736)" style="fill:none;fill-rule:evenodd;stroke:#000;stroke-width:2.31193;stroke-miterlimit:4;stroke-dasharray:none;stroke-opacity:1"/><path id="path1900-6" d="m 110.06669,121.81877 h 24.38133" style="fill:none;stroke:#000;stroke-width:.170703px;stroke-linecap:butt;stroke-linejoin:miter;stroke-opacity:1;marker-end:url(#Arrow2Lend-8)"/><path id="path1900-5-7" d="m 142.57513,121.81877 h 18.28599" style="fill:none;stroke:#000;stroke-width:.147833px;stroke-linecap:butt;stroke-linejoin:miter;stroke-opacity:1;marker-end:url(#Arrow2Lend-04-9)"/><path id="path655-6" d="m 510,320 -45,25.98076 -45,25.98076 0,-51.96152 0,-51.96152 45,25.98076 z" transform="matrix(0.09030122,0,0,0.07820316,96.521476,121.17493)" style="fill:none;fill-rule:evenodd;stroke:#000;stroke-width:2.31193;stroke-miterlimit:4;stroke-dasharray:none;stroke-opacity:1"/><path id="path1900-4" d="m 110.06669,146.1999 h 24.38133" style="fill:none;stroke:#000;stroke-width:.170703px;stroke-linecap:butt;stroke-linejoin:miter;stroke-opacity:1;marker-end:url(#Arrow2Lend-74)"/><path id="path1900-5-8" d="m 142.57513,146.1999 h 18.28599" style="fill:none;stroke:#000;stroke-width:.147833px;stroke-linecap:butt;stroke-linejoin:miter;stroke-opacity:1;marker-end:url(#Arrow2Lend-04-4)"/><path id="path655-9" d="m 510,320 -45,25.98076 -45,25.98076 0,-51.96152 0,-51.96152 45,25.98076 z" transform="matrix(0.09030122,0,0,0.07820316,96.521476,133.36559)" style="fill:none;fill-rule:evenodd;stroke:#000;stroke-width:2.31193;stroke-miterlimit:4;stroke-dasharray:none;stroke-opacity:1"/><path id="path1900-51" d="m 110.06669,158.39056 h 24.38133" style="fill:none;stroke:#000;stroke-width:.170703px;stroke-linecap:butt;stroke-linejoin:miter;stroke-opacity:1;marker-end:url(#Arrow2Lend-79)"/><path id="path1900-5-85" d="m 142.57513,158.39056 h 18.28599" style="fill:none;stroke:#000;stroke-width:.147833px;stroke-linecap:butt;stroke-linejoin:miter;stroke-opacity:1;marker-end:url(#Arrow2Lend-04-40)"/><path id="path655-95" d="m 510,320 -45,25.98076 -45,25.98076 0,-51.96152 0,-51.96152 45,25.98076 z" transform="matrix(0.09030122,0,0,0.07820316,96.521476,145.55621)" style="fill:none;fill-rule:evenodd;stroke:#000;stroke-width:2.31193;stroke-miterlimit:4;stroke-dasharray:none;stroke-opacity:1"/><path id="path1900-8" d="m 110.06669,170.58122 h 24.38133" style="fill:none;stroke:#000;stroke-width:.170703px;stroke-linecap:butt;stroke-linejoin:miter;stroke-opacity:1;marker-end:url(#Arrow2Lend-5)"/><path id="path1900-5-0" d="m 142.57513,170.58122 h 18.28599" style="fill:none;stroke:#000;stroke-width:.147833px;stroke-linecap:butt;stroke-linejoin:miter;stroke-opacity:1;marker-end:url(#Arrow2Lend-04-7)"/><path id="path655-6-1" d="m 510,320 -45,25.98076 -45,25.98076 0,-51.96152 0,-51.96152 45,25.98076 z" transform="matrix(0.09030122,0,0,0.07820316,96.521476,157.74688)" style="fill:none;fill-rule:evenodd;stroke:#000;stroke-width:2.31193;stroke-miterlimit:4;stroke-dasharray:none;stroke-opacity:1"/><path id="path1900-4-3" d="m 110.06669,182.77189 h 24.38133" style="fill:none;stroke:#000;stroke-width:.170703px;stroke-linecap:butt;stroke-linejoin:miter;stroke-opacity:1;marker-end:url(#Arrow2Lend-74-5)"/><path id="path1900-5-8-6" d="m 142.57513,182.77189 h 18.28599" style="fill:none;stroke:#000;stroke-width:.147833px;stroke-linecap:butt;stroke-linejoin:miter;stroke-opacity:1;marker-end:url(#Arrow2Lend-04-4-6)"/><path id="path655-9-5" d="m 510,320 -45,25.98076 -45,25.98076 0,-51.96152 0,-51.96152 45,25.98076 z" transform="matrix(0.09030122,0,0,0.07820316,96.521476,169.93754)" style="fill:none;fill-rule:evenodd;stroke:#000;stroke-width:2.31193;stroke-miterlimit:4;stroke-dasharray:none;stroke-opacity:1"/><path id="path1900-51-8" d="m 110.06669,194.96255 h 24.38133" style="fill:none;stroke:#000;stroke-width:.170703px;stroke-linecap:butt;stroke-linejoin:miter;stroke-opacity:1;marker-end:url(#Arrow2Lend-79-5)"/><path id="path1900-5-85-1" d="m 142.57513,194.96255 h 18.28599" style="fill:none;stroke:#000;stroke-width:.147833px;stroke-linecap:butt;stroke-linejoin:miter;stroke-opacity:1;marker-end:url(#Arrow2Lend-04-40-6)"/><path id="path655-9-5-1" d="m 510,320 -45,25.98076 -45,25.98076 0,-51.96152 0,-51.96152 45,25.98076 z" transform="matrix(0.09030122,0,0,0.07820316,96.521476,182.12821)" style="fill:none;fill-rule:evenodd;stroke:#000;stroke-width:2.31193;stroke-miterlimit:4;stroke-dasharray:none;stroke-opacity:1"/><path id="path1900-51-8-4" d="m 110.06669,207.15321 h 24.38133" style="fill:none;stroke:#000;stroke-width:.170703px;stroke-linecap:butt;stroke-linejoin:miter;stroke-opacity:1;marker-end:url(#Arrow2Lend-79-5-7)"/><path id="path1900-5-85-1-3" d="m 142.57513,207.15321 h 18.28599" style="fill:none;stroke:#000;stroke-width:.147833px;stroke-linecap:butt;stroke-linejoin:miter;stroke-opacity:1;marker-end:url(#Arrow2Lend-04-40-6-2)"/><path id="path3318" d="M 57.469729,132.29167 H 77.7875" style="fill:none;stroke:#000;stroke-width:.178198px;stroke-linecap:butt;stroke-linejoin:miter;stroke-opacity:1;marker-end:url(#Arrow2Lend)"/><g id="g15560" transform="translate(-57.46973,-131.43974)"><path id="path3318-9" d="M 57.469729,132.29167 H 77.7875" style="fill:none;stroke:#000;stroke-width:.178198px;stroke-linecap:butt;stroke-linejoin:miter;stroke-opacity:1;marker-end:url(#Arrow2Lend-743)"/></g><path id="path3318-5" d="M 57.240458,158.39056 H 77.558229" style="fill:none;stroke:#000;stroke-width:.178198px;stroke-linecap:butt;stroke-linejoin:miter;stroke-opacity:1;marker-end:url(#Arrow2Lend-93)"/><path id="path3318-5-8" d="M 57.240458,170.58122 H 77.558229" style="fill:none;stroke:#000;stroke-width:.178198px;stroke-linecap:butt;stroke-linejoin:miter;stroke-opacity:1;marker-end:url(#Arrow2Lend-93-9)"/><path id="path3318-4" d="M 57.240458,146.1999 H 77.558229" style="fill:none;stroke:#000;stroke-width:.178198px;stroke-linecap:butt;stroke-linejoin:miter;stroke-opacity:1;marker-end:url(#Arrow2Lend-6)"/><path id="path3318-5-9" d="M 57.240458,182.77189 H 77.558229" style="fill:none;stroke:#000;stroke-width:.178198px;stroke-linecap:butt;stroke-linejoin:miter;stroke-opacity:1;marker-end:url(#Arrow2Lend-93-3)"/><path id="path3318-5-9-8" d="M 57.240458,194.96255 H 77.558229" style="fill:none;stroke:#000;stroke-width:.178198px;stroke-linecap:butt;stroke-linejoin:miter;stroke-opacity:1;marker-end:url(#Arrow2Lend-93-3-0)"/><path id="path3318-5-9-0" d="M 57.240458,207.15321 H 77.558229" style="fill:none;stroke:#000;stroke-width:.178198px;stroke-linecap:butt;stroke-linejoin:miter;stroke-opacity:1;marker-end:url(#Arrow2Lend-93-3-9)"/><g id="g492" transform="matrix(0.71172684,0,0,0.7679158,44.058683,64.928828)"><path id="path407-9" d="m 127,198.4375 v 7.9375" style="fill:none;stroke:#000;stroke-width:.264583px;stroke-linecap:butt;stroke-linejoin:miter;stroke-opacity:1;marker-end:url(#Arrow2Lend-98-4)"/><path id="path292" d="M 18.520833,198.43749 H 127 v 0" style="fill:none;stroke:#000;stroke-width:.264583px;stroke-linecap:butt;stroke-linejoin:miter;stroke-opacity:1"/></g><rect id="rect1618" width="32.508" height="12.191" x="175.083" y="241.694" ry="0" style="fill:#ff0;fill-opacity:.5;fill-rule:evenodd;stroke:#000;stroke-width:.202377;stroke-miterlimit:4;stroke-dasharray:none;stroke-opacity:1"/><path id="path3114" d="m 137.69886,247.78896 h 37.3847" style="fill:none;stroke:#000;stroke-width:.192961px;stroke-linecap:butt;stroke-linejoin:miter;stroke-opacity:1;marker-end:url(#Arrow2Lend-9)"/><path id="path4615" d="m 179.14711,253.88428 v 26.41311 H 73.494676 v -32.50844 h 24.381325 v 0" style="fill:none;stroke:#000;stroke-width:.203177px;stroke-linecap:butt;stroke-linejoin:miter;stroke-opacity:1;marker-end:url(#Arrow2Lend-9)"/><path id="path5065" d="M 57.240458,268.10672 H 101.93956" style="fill:none;stroke:#000;stroke-width:.203177px;stroke-linecap:butt;stroke-linejoin:miter;stroke-opacity:1;marker-end:url(#Arrow2Lend-2)"/><text style="font-size:15.9518px;line-height:1.25;font-family:sans-serif;text-align:center;letter-spacing:0;white-space:pre;shape-inside:url(#rect8082)" id="text8080" x="10.641" y="0" transform="matrix(0.33965314,0,0,0.33965314,4.4813966,-71.123631)" xml:space="preserve"><tspan id="tspan69707" x="323.979" y="1004.553">AC</tspan></text><text style="font-size:26.6667px;line-height:1.25;font-family:sans-serif;letter-spacing:0;white-space:pre;shape-inside:url(#rect21842)" id="text21840" transform="matrix(0.20317772,0,0,0.20317772,56.056575,63.987284)" xml:space="preserve"><tspan id="tspan69709" x="170" y="714.329">IR</tspan></text><text style="font-size:26.6667px;line-height:1.25;font-family:sans-serif;letter-spacing:0;white-space:pre;shape-inside:url(#rect28104)" id="text28102" transform="matrix(0.20317772,0,0,0.20317772,55.690167,66.02568)" xml:space="preserve"><tspan id="tspan69711" x="170" y="644.329">R1</tspan></text><text style="font-size:26.6667px;line-height:1.25;font-family:sans-serif;letter-spacing:0;white-space:pre;shape-inside:url(#rect29760)" id="text29758" transform="matrix(0.20317772,0,0,0.20317772,55.57773,64.028294)" xml:space="preserve"><tspan id="tspan69713" x="170" y="594.329">R2</tspan></text><text style="font-size:26.6667px;line-height:1.25;font-family:sans-serif;letter-spacing:0;white-space:pre;shape-inside:url(#rect32868)" id="text32866" transform="matrix(0.20317772,0,0,0.20317772,55.605508,63.98729)" xml:space="preserve"><tspan id="tspan69715" x="170" y="534.329">R3</tspan></text><text style="font-size:26.6667px;line-height:1.25;font-family:sans-serif;letter-spacing:0;white-space:pre;shape-inside:url(#rect38550)" id="text38548" transform="matrix(0.20317772,0,0,0.20317772,55.532756,66.018939)" xml:space="preserve"><tspan id="tspan69717" x="170" y="464.329">R4</tspan></text><text style="font-size:26.6667px;line-height:1.25;font-family:sans-serif;letter-spacing:0;white-space:pre;shape-inside:url(#rect48945)" id="text48943" transform="matrix(0.20317772,0,0,0.20317772,57.625381,65.977918)" xml:space="preserve"><tspan id="tspan69719" x="160" y="404.329">R5</tspan></text><text style="font-size:26.6667px;line-height:1.25;font-family:sans-serif;letter-spacing:0;white-space:pre;shape-inside:url(#rect50836)" id="text50834" transform="matrix(0.20317772,0,0,0.20317772,53.556536,66.018921)" xml:space="preserve"><tspan id="tspan69721" x="180" y="344.329">PC</tspan></text><text style="font-size:26.6667px;line-height:1.25;font-family:sans-serif;letter-spacing:0;white-space:pre;shape-inside:url(#rect53536)" id="text53534" transform="matrix(0.20317772,0,0,0.20317772,55.026135,66.019079)" xml:space="preserve"><tspan id="tspan69723" x="170" y="284.329">DR</tspan></text><rect id="rect10214-3-7-1-0-1-0-5-6" width="32.508" height="8.127" x="77.558" y="103.533" style="fill:none;fill-opacity:1;stroke:#000;stroke-width:.194283;stroke-miterlimit:4;stroke-dasharray:none;stroke-opacity:1"/><path id="path1900-6-2" d="m 110.06669,107.59632 h 24.38133" style="fill:none;stroke:#000;stroke-width:.170703px;stroke-linecap:butt;stroke-linejoin:miter;stroke-opacity:1;marker-end:url(#Arrow2Lend-8-1)"/><text style="font-size:26.6667px;line-height:1.25;font-family:sans-serif;letter-spacing:0;white-space:pre;shape-inside:url(#rect53536-6)" id="text53534-4" transform="matrix(0.20317772,0,0,0.20317772,55.026135,51.796629)" xml:space="preserve"><tspan id="tspan1385" x="170" y="284.329">DAR</tspan></text><path id="path1672" d="m 150.70223,207.15341 v 10.15888 h 40.63554 v 23.97497" style="fill:none;stroke:#000;stroke-width:.203177px;stroke-linecap:butt;stroke-linejoin:miter;stroke-opacity:1;marker-end:url(#Arrow2Lend-7)"/><text style="font-style:normal;font-weight:400;font-size:26.6667px;line-height:1.25;font-family:sans-serif;white-space:pre;shape-inside:url(#rect4329);fill:#000;fill-opacity:1;stroke:none" id="text4327" transform="matrix(0.20317772,0,0,0.20317772,49.506202,66.066691)" xml:space="preserve"><tspan id="tspan69725" x="650" y="904.329">Control</tspan></text><path id="path12316" d="m 187.27423,253.88428 v 14.22244" style="fill:none;stroke:#000;stroke-width:.203177px;stroke-linecap:butt;stroke-linejoin:miter;stroke-opacity:1;marker-end:url(#Arrow2Lend-7)"/><path id="path12316-1" d="m 193.36955,253.88428 v 14.22244" style="fill:none;stroke:#000;stroke-width:.203177px;stroke-linecap:butt;stroke-linejoin:miter;stroke-opacity:1;marker-end:url(#Arrow2Lend-7-3)"/><path id="path12320" d="m 199.46489,253.88428 v 14.22244" style="fill:none;stroke:#000;stroke-width:.203177px;stroke-linecap:butt;stroke-linejoin:miter;stroke-opacity:1;marker-end:url(#Arrow2Lend-9)"/><text style="font-style:normal;font-weight:400;font-size:16px;line-height:1.25;font-family:sans-serif;white-space:pre;shape-inside:url(#rect17624);fill:#000;fill-opacity:1;stroke:none" id="text17622" transform="matrix(-0.00119391,0.20317421,-0.20317421,-0.00119391,409.25917,147.12545)" xml:space="preserve"><tspan id="tspan69727" x="610" y="1094.597">increment</tspan></text><text style="font-style:normal;font-weight:400;font-size:16px;line-height:1.25;font-family:sans-serif;white-space:pre;shape-inside:url(#rect31439);fill:#000;fill-opacity:1;stroke:none" id="text31437" transform="matrix(0,0.20317772,-0.20317772,0,400.45776,123.6193)" xml:space="preserve"><tspan id="tspan69729" x="720" y="1024.597">write_enable</tspan></text><text style="font-style:normal;font-weight:400;font-size:16px;line-height:1.25;font-family:sans-serif;white-space:pre;shape-inside:url(#rect31439-4);fill:#000;fill-opacity:1;stroke:none" id="text31437-5" transform="matrix(0,0.20317772,-0.20317772,0,406.6954,123.4399)" xml:space="preserve"><tspan id="tspan69731" x="720" y="1024.597">read_enable</tspan></text><text style="font-style:normal;font-weight:400;font-size:26.6667px;line-height:1.25;font-family:sans-serif;white-space:pre;shape-inside:url(#rect48818);fill:#000;fill-opacity:1;stroke:none" id="text48816" transform="matrix(0.20317772,0,0,0.20317772,52.098836,67.396746)" xml:space="preserve"><tspan id="tspan69733" x="300" y="914.329">ALU</tspan></text><text style="font-size:26.6667px;line-height:1.25;font-family:sans-serif;text-align:center;letter-spacing:0;white-space:pre;shape-inside:url(#rect56297)" id="text56295" x="52.122" y="0" transform="matrix(0.26458333,0,0,0.26458333,-17.966509,52.25949)" xml:space="preserve"><tspan id="tspan69735" x="133.769" y="84.329">Data </tspan><tspan id="tspan69737" x="116.178" y="117.662">Memory</tspan></text><text style="font-size:26.6667px;line-height:1.25;font-family:sans-serif;text-align:center;letter-spacing:0;white-space:pre;shape-inside:url(#rect60571)" id="text60569" x="71.875" y="0" transform="matrix(0.26458333,0,0,0.26458333,-93.090742,143.29338)" xml:space="preserve"><tspan id="tspan69739" x="382.233" y="84.329">Instruction </tspan><tspan id="tspan69741" x="401.178" y="117.662">Memory</tspan></text></g></svg>