<svg xmlns="http://www.w3.org/2000/svg" xmlns:svg="http://www.w3.org/2000/svg" xmlns:xlink="http://www.w3.org/1999/xlink" id="svg5" width="210mm" height="297mm" version="1.1" viewBox="0 0 210 297"><defs id="defs2"><marker id="Arrow1Lstart" orient="auto" refX="0" refY="0" style="overflow:visible"><path id="path44384" d="M 0.0,0.0 L 5.0,-5.0 L -12.5,0.0 L 5.0,5.0 L 0.0,0.0 z" transform="scale(0.8) translate(12.5,0)" style="fill-rule:evenodd;fill:context-stroke;stroke:context-stroke;stroke-width:1pt"/></marker><rect id="rect30062" width="100" height="40" x="460" y="850"/><rect id="rect19564" width="40" height="30" x="400" y="390"/><rect id="rect60571" width="210" height="80" x="350" y="60"/><rect id="rect56297" width="220" height="80" x="60" y="60"/><rect id="rect48818" width="100" height="50" x="300" y="890"/><rect id="rect31439" width="111.138" height="49.559" x="720" y="1010"/><rect id="rect17624" width="150" height="50" x="610" y="1080"/><rect id="rect4329" width="180" height="50" x="650" y="880"/><rect id="rect53536" width="100" height="50" x="170" y="260"/><rect id="rect50836" width="80" height="40" x="180" y="320"/><rect id="rect48945" width="70" height="50" x="160" y="380"/><linearGradient id="linearGradient45989"><stop id="stop45985" offset="0" style="stop-color:#3cff00;stop-opacity:1"/><stop id="stop45987" offset="1" style="stop-color:#3cff00;stop-opacity:0"/></linearGradient><rect id="rect42162" width="80" height="40" x="160" y="390"/><rect id="rect38550" width="70" height="40" x="170" y="440"/><rect id="rect32868" width="90" height="50" x="170" y="510"/><rect id="rect29760" width="80" height="40" x="170" y="570"/><rect id="rect28104" width="100" height="40" x="170" y="620"/><rect id="rect21842" width="140" height="60" x="170" y="690"/><rect id="rect8082" width="90" height="20" x="290" y="990"/><marker id="Arrow2Lend" orient="auto" refX="0" refY="0" style="overflow:visible"><path id="path1933" d="M 8.7185878,4.0337352 L -2.2072895,0.016013256 L 8.7185884,-4.0017078 C 6.9730900,-1.6296469 6.9831476,1.6157441 8.7185878,4.0337352 z" transform="scale(1.1) rotate(180) translate(1,0)" style="stroke:context-stroke;fill-rule:evenodd;fill:context-stroke;stroke-width:.625;stroke-linejoin:round"/></marker><linearGradient id="linearGradient1236"><stop id="stop1234" offset="0" style="stop-color:#000;stop-opacity:1"/></linearGradient><marker id="Arrow2Lend-9" orient="auto" refX="0" refY="0" style="overflow:visible"><path id="path1933-0" d="M 8.7185878,4.0337352 -2.2072895,0.01601326 8.7185884,-4.0017078 c -1.7454984,2.3720609 -1.7354408,5.6174519 -6e-7,8.035443 z" transform="matrix(-1.1,0,0,-1.1,-1.1,0)" style="fill:context-stroke;fill-rule:evenodd;stroke:context-stroke;stroke-width:.625;stroke-linejoin:round"/></marker><marker id="Arrow2Lend-7" orient="auto" refX="0" refY="0" style="overflow:visible"><path id="path1933-8" d="M 8.7185878,4.0337352 -2.2072895,0.01601326 8.7185884,-4.0017078 c -1.7454984,2.3720609 -1.7354408,5.6174519 -6e-7,8.035443 z" transform="matrix(-1.1,0,0,-1.1,-1.1,0)" style="fill:context-stroke;fill-rule:evenodd;stroke:context-stroke;stroke-width:.625;stroke-linejoin:round"/></marker><marker id="Arrow2Lend-2" orient="auto" refX="0" refY="0" style="overflow:visible"><path id="path1933-86" d="M 8.7185878,4.0337352 -2.2072895,0.01601326 8.7185884,-4.0017078 c -1.7454984,2.3720609 -1.7354408,5.6174519 -6e-7,8.035443 z" transform="matrix(-1.1,0,0,-1.1,-1.1,0)" style="fill:context-stroke;fill-rule:evenodd;stroke:context-stroke;stroke-width:.625;stroke-linejoin:round"/></marker><marker id="Arrow2Lend-0" orient="auto" refX="0" refY="0" style="overflow:visible"><path id="path1933-3" d="M 8.7185878,4.0337352 -2.2072895,0.01601326 8.7185884,-4.0017078 c -1.7454984,2.3720609 -1.7354408,5.6174519 -6e-7,8.035443 z" transform="matrix(-1.1,0,0,-1.1,-1.1,0)" style="fill:context-stroke;fill-rule:evenodd;stroke:context-stroke;stroke-width:.625;stroke-linejoin:round"/></marker><marker id="Arrow2Lend-98" orient="auto" refX="0" refY="0" style="overflow:visible"><path id="path1933-6" d="M 8.7185878,4.0337352 -2.2072895,0.01601326 8.7185884,-4.0017078 c -1.7454984,2.3720609 -1.7354408,5.6174519 -6e-7,8.035443 z" transform="matrix(-1.1,0,0,-1.1,-1.1,0)" style="fill:context-stroke;fill-rule:evenodd;stroke:context-stroke;stroke-width:.625;stroke-linejoin:round"/></marker><marker id="Arrow2Lend-98-8" orient="auto" refX="0" refY="0" style="overflow:visible"><path id="path1933-6-2" d="M 8.7185878,4.0337352 -2.2072895,0.01601326 8.7185884,-4.0017078 c -1.7454984,2.3720609 -1.7354408,5.6174519 -6e-7,8.035443 z" transform="matrix(-1.1,0,0,-1.1,-1.1,0)" style="fill:context-stroke;fill-rule:evenodd;stroke:context-stroke;stroke-width:.625;stroke-linejoin:round"/></marker><marker id="Arrow2Lend-98-8-3" orient="auto" refX="0" refY="0" style="overflow:visible"><path id="path1933-6-2-1" d="M 8.7185878,4.0337352 -2.2072895,0.01601326 8.7185884,-4.0017078 c -1.7454984,2.3720609 -1.7354408,5.6174519 -6e-7,8.035443 z" transform="matrix(-1.1,0,0,-1.1,-1.1,0)" style="fill:context-stroke;fill-rule:evenodd;stroke:context-stroke;stroke-width:.625;stroke-linejoin:round"/></marker><marker id="Arrow2Lend-98-8-3-6" orient="auto" refX="0" refY="0" style="overflow:visible"><path id="path1933-6-2-1-7" d="M 8.7185878,4.0337352 -2.2072895,0.01601326 8.7185884,-4.0017078 c -1.7454984,2.3720609 -1.7354408,5.6174519 -6e-7,8.035443 z" transform="matrix(-1.1,0,0,-1.1,-1.1,0)" style="fill:context-stroke;fill-rule:evenodd;stroke:context-stroke;stroke-width:.625;stroke-linejoin:round"/></marker><marker id="Arrow2Lend-98-8-3-6-6" orient="auto" refX="0" refY="0" style="overflow:visible"><path id="path1933-6-2-1-7-5" d="M 8.7185878,4.0337352 -2.2072895,0.01601326 8.7185884,-4.0017078 c -1.7454984,2.3720609 -1.7354408,5.6174519 -6e-7,8.035443 z" transform="matrix(-1.1,0,0,-1.1,-1.1,0)" style="fill:context-stroke;fill-rule:evenodd;stroke:context-stroke;stroke-width:.625;stroke-linejoin:round"/></marker><marker id="Arrow2Lend-98-8-3-6-6-9" orient="auto" refX="0" refY="0" style="overflow:visible"><path id="path1933-6-2-1-7-5-3" d="M 8.7185878,4.0337352 -2.2072895,0.01601326 8.7185884,-4.0017078 c -1.7454984,2.3720609 -1.7354408,5.6174519 -6e-7,8.035443 z" transform="matrix(-1.1,0,0,-1.1,-1.1,0)" style="fill:context-stroke;fill-rule:evenodd;stroke:context-stroke;stroke-width:.625;stroke-linejoin:round"/></marker><marker id="Arrow2Lend-76" orient="auto" refX="0" refY="0" style="overflow:visible"><path id="path1933-9" d="M 8.7185878,4.0337352 -2.2072895,0.01601326 8.7185884,-4.0017078 c -1.7454984,2.3720609 -1.7354408,5.6174519 -6e-7,8.035443 z" transform="matrix(-1.1,0,0,-1.1,-1.1,0)" style="fill:context-stroke;fill-rule:evenodd;stroke:context-stroke;stroke-width:.625;stroke-linejoin:round"/></marker><marker id="Arrow2Lend-04" orient="auto" refX="0" refY="0" style="overflow:visible"><path id="path1933-80" d="M 8.7185878,4.0337352 -2.2072895,0.01601326 8.7185884,-4.0017078 c -1.7454984,2.3720609 -1.7354408,5.6174519 -6e-7,8.035443 z" transform="matrix(-1.1,0,0,-1.1,-1.1,0)" style="fill:context-stroke;fill-rule:evenodd;stroke:context-stroke;stroke-width:.625;stroke-linejoin:round"/></marker><marker id="Arrow2Lend-74" orient="auto" refX="0" refY="0" style="overflow:visible"><path id="path1933-63" d="M 8.7185878,4.0337352 -2.2072895,0.01601326 8.7185884,-4.0017078 c -1.7454984,2.3720609 -1.7354408,5.6174519 -6e-7,8.035443 z" transform="matrix(-1.1,0,0,-1.1,-1.1,0)" style="fill:context-stroke;fill-rule:evenodd;stroke:context-stroke;stroke-width:.625;stroke-linejoin:round"/></marker><marker id="Arrow2Lend-04-4" orient="auto" refX="0" refY="0" style="overflow:visible"><path id="path1933-80-4" d="M 8.7185878,4.0337352 -2.2072895,0.01601326 8.7185884,-4.0017078 c -1.7454984,2.3720609 -1.7354408,5.6174519 -6e-7,8.035443 z" transform="matrix(-1.1,0,0,-1.1,-1.1,0)" style="fill:context-stroke;fill-rule:evenodd;stroke:context-stroke;stroke-width:.625;stroke-linejoin:round"/></marker><marker id="Arrow2Lend-79" orient="auto" refX="0" refY="0" style="overflow:visible"><path id="path1933-94" d="M 8.7185878,4.0337352 -2.2072895,0.01601326 8.7185884,-4.0017078 c -1.7454984,2.3720609 -1.7354408,5.6174519 -6e-7,8.035443 z" transform="matrix(-1.1,0,0,-1.1,-1.1,0)" style="fill:context-stroke;fill-rule:evenodd;stroke:context-stroke;stroke-width:.625;stroke-linejoin:round"/></marker><marker id="Arrow2Lend-04-40" orient="auto" refX="0" refY="0" style="overflow:visible"><path id="path1933-80-2" d="M 8.7185878,4.0337352 -2.2072895,0.01601326 8.7185884,-4.0017078 c -1.7454984,2.3720609 -1.7354408,5.6174519 -6e-7,8.035443 z" transform="matrix(-1.1,0,0,-1.1,-1.1,0)" style="fill:context-stroke;fill-rule:evenodd;stroke:context-stroke;stroke-width:.625;stroke-linejoin:round"/></marker><marker id="Arrow2Lend-5" orient="auto" refX="0" refY="0" style="overflow:visible"><path id="path1933-30" d="M 8.7185878,4.0337352 -2.2072895,0.01601326 8.7185884,-4.0017078 c -1.7454984,2.3720609 -1.7354408,5.6174519 -6e-7,8.035443 z" transform="matrix(-1.1,0,0,-1.1,-1.1,0)" style="fill:context-stroke;fill-rule:evenodd;stroke:context-stroke;stroke-width:.625;stroke-linejoin:round"/></marker><marker id="Arrow2Lend-04-7" orient="auto" refX="0" refY="0" style="overflow:visible"><path id="path1933-80-0" d="M 8.7185878,4.0337352 -2.2072895,0.01601326 8.7185884,-4.0017078 c -1.7454984,2.3720609 -1.7354408,5.6174519 -6e-7,8.035443 z" transform="matrix(-1.1,0,0,-1.1,-1.1,0)" style="fill:context-stroke;fill-rule:evenodd;stroke:context-stroke;stroke-width:.625;stroke-linejoin:round"/></marker><marker id="Arrow2Lend-74-5" orient="auto" refX="0" refY="0" style="overflow:visible"><path id="path1933-63-9" d="M 8.7185878,4.0337352 -2.2072895,0.01601326 8.7185884,-4.0017078 c -1.7454984,2.3720609 -1.7354408,5.6174519 -6e-7,8.035443 z" transform="matrix(-1.1,0,0,-1.1,-1.1,0)" style="fill:context-stroke;fill-rule:evenodd;stroke:context-stroke;stroke-width:.625;stroke-linejoin:round"/></marker><marker id="Arrow2Lend-04-4-6" orient="auto" refX="0" refY="0" style="overflow:visible"><path id="path1933-80-4-6" d="M 8.7185878,4.0337352 -2.2072895,0.01601326 8.7185884,-4.0017078 c -1.7454984,2.3720609 -1.7354408,5.6174519 -6e-7,8.035443 z" transform="matrix(-1.1,0,0,-1.1,-1.1,0)" style="fill:context-stroke;fill-rule:evenodd;stroke:context-stroke;stroke-width:.625;stroke-linejoin:round"/></marker><marker id="Arrow2Lend-79-5" orient="auto" refX="0" refY="0" style="overflow:visible"><path id="path1933-94-0" d="M 8.7185878,4.0337352 -2.2072895,0.01601326 8.7185884,-4.0017078 c -1.7454984,2.3720609 -1.7354408,5.6174519 -6e-7,8.035443 z" transform="matrix(-1.1,0,0,-1.1,-1.1,0)" style="fill:context-stroke;fill-rule:evenodd;stroke:context-stroke;stroke-width:.625;stroke-linejoin:round"/></marker><marker id="Arrow2Lend-04-40-6" orient="auto" refX="0" refY="0" style="overflow:visible"><path id="path1933-80-2-6" d="M 8.7185878,4.0337352 -2.2072895,0.01601326 8.7185884,-4.0017078 c -1.7454984,2.3720609 -1.7354408,5.6174519 -6e-7,8.035443 z" transform="matrix(-1.1,0,0,-1.1,-1.1,0)" style="fill:context-stroke;fill-rule:evenodd;stroke:context-stroke;stroke-width:.625;stroke-linejoin:round"/></marker><marker id="Arrow2Lend-79-5-7" orient="auto" refX="0" refY="0" style="overflow:visible"><path id="path1933-94-0-3" d="M 8.7185878,4.0337352 -2.2072895,0.01601326 8.7185884,-4.0017078 c -1.7454984,2.3720609 -1.7354408,5.6174519 -6e-7,8.035443 z" transform="matrix(-1.1,0,0,-1.1,-1.1,0)" style="fill:context-stroke;fill-rule:evenodd;stroke:context-stroke;stroke-width:.625;stroke-linejoin:round"/></marker><marker id="Arrow2Lend-04-40-6-2" orient="auto" refX="0" refY="0" style="overflow:visible"><path id="path1933-80-2-6-6" d="M 8.7185878,4.0337352 -2.2072895,0.01601326 8.7185884,-4.0017078 c -1.7454984,2.3720609 -1.7354408,5.6174519 -6e-7,8.035443 z" transform="matrix(-1.1,0,0,-1.1,-1.1,0)" style="fill:context-stroke;fill-rule:evenodd;stroke:context-stroke;stroke-width:.625;stroke-linejoin:round"/></marker><marker id="Arrow2Lend-6" orient="auto" refX="0" refY="0" style="overflow:visible"><path id="path1933-4" d="M 8.7185878,4.0337352 -2.2072895,0.01601326 8.7185884,-4.0017078 c -1.7454984,2.3720609 -1.7354408,5.6174519 -6e-7,8.035443 z" transform="matrix(-1.1,0,0,-1.1,-1.1,0)" style="fill:context-stroke;fill-rule:evenodd;stroke:context-stroke;stroke-width:.625;stroke-linejoin:round"/></marker><marker id="Arrow2Lend-93" orient="auto" refX="0" refY="0" style="overflow:visible"><path id="path1933-65" d="M 8.7185878,4.0337352 -2.2072895,0.01601326 8.7185884,-4.0017078 c -1.7454984,2.3720609 -1.7354408,5.6174519 -6e-7,8.035443 z" transform="matrix(-1.1,0,0,-1.1,-1.1,0)" style="fill:context-stroke;fill-rule:evenodd;stroke:context-stroke;stroke-width:.625;stroke-linejoin:round"/></marker><marker id="Arrow2Lend-93-9" orient="auto" refX="0" refY="0" style="overflow:visible"><path id="path1933-65-1" d="M 8.7185878,4.0337352 -2.2072895,0.01601326 8.7185884,-4.0017078 c -1.7454984,2.3720609 -1.7354408,5.6174519 -6e-7,8.035443 z" transform="matrix(-1.1,0,0,-1.1,-1.1,0)" style="fill:context-stroke;fill-rule:evenodd;stroke:context-stroke;stroke-width:.625;stroke-linejoin:round"/></marker><marker id="Arrow2Lend-93-3" orient="auto" refX="0" refY="0" style="overflow:visible"><path id="path1933-65-2" d="M 8.7185878,4.0337352 -2.2072895,0.01601326 8.7185884,-4.0017078 c -1.7454984,2.3720609 -1.7354408,5.6174519 -6e-7,8.035443 z" transform="matrix(-1.1,0,0,-1.1,-1.1,0)" style="fill:context-stroke;fill-rule:evenodd;stroke:context-stroke;stroke-width:.625;stroke-linejoin:round"/></marker><marker id="Arrow2Lend-93-3-0" orient="auto" refX="0" refY="0" style="overflow:visible"><path id="path1933-65-2-7" d="M 8.7185878,4.0337352 -2.2072895,0.01601326 8.7185884,-4.0017078 c -1.7454984,2.3720609 -1.7354408,5.6174519 -6e-7,8.035443 z" transform="matrix(-1.1,0,0,-1.1,-1.1,0)" style="fill:context-stroke;fill-rule:evenodd;stroke:context-stroke;stroke-width:.625;stroke-linejoin:round"/></marker><marker id="Arrow2Lend-93-3-9" orient="auto" refX="0" refY="0" style="overflow:visible"><path id="path1933-65-2-3" d="M 8.7185878,4.0337352 -2.2072895,0.01601326 8.7185884,-4.0017078 c -1.7454984,2.3720609 -1.7354408,5.6174519 -6e-7,8.035443 z" transform="matrix(-1.1,0,0,-1.1,-1.1,0)" style="fill:context-stroke;fill-rule:evenodd;stroke:context-stroke;stroke-width:.625;stroke-linejoin:round"/></marker><marker id="Arrow2Lend-98-4" orient="auto" refX="0" refY="0" style="overflow:visible"><path id="path1933-6-6" d="M 8.7185878,4.0337352 -2.2072895,0.01601326 8.7185884,-4.0017078 c -1.7454984,2.3720609 -1.7354408,5.6174519 -6e-7,8.035443 z" transform="matrix(-1.1,0,0,-1.1,-1.1,0)" style="fill:context-stroke;fill-rule:evenodd;stroke:context-stroke;stroke-width:.625;stroke-linejoin:round"/></marker><marker id="Arrow2Lend-8" orient="auto" refX="0" refY="0" style="overflow:visible"><path id="path1933-81" d="M 8.7185878,4.0337352 -2.2072895,0.01601326 8.7185884,-4.0017078 c -1.7454984,2.3720609 -1.7354408,5.6174519 -6e-7,8.035443 z" transform="matrix(-1.1,0,0,-1.1,-1.1,0)" style="fill:context-stroke;fill-rule:evenodd;stroke:context-stroke;stroke-width:.625;stroke-linejoin:round"/></marker><marker id="Arrow2Lend-04-9" orient="auto" refX="0" refY="0" style="overflow:visible"><path id="path1933-80-5" d="M 8.7185878,4.0337352 -2.2072895,0.01601326 8.7185884,-4.0017078 c -1.7454984,2.3720609 -1.7354408,5.6174519 -6e-7,8.035443 z" transform="matrix(-1.1,0,0,-1.1,-1.1,0)" style="fill:context-stroke;fill-rule:evenodd;stroke:context-stroke;stroke-width:.625;stroke-linejoin:round"/></marker><linearGradient id="linearGradient45993" x1="184.356" x2="216.36" y1="404.837" y2="404.837" gradientUnits="userSpaceOnUse" xlink:href="#linearGradient45989"/><marker id="Arrow2Lend-7-3" orient="auto" refX="0" refY="0" style="overflow:visible"><path id="path1933-8-1" d="M 8.7185878,4.0337352 -2.2072895,0.01601326 8.7185884,-4.0017078 c -1.7454984,2.3720609 -1.7354408,5.6174519 -6e-7,8.035443 z" transform="matrix(-1.1,0,0,-1.1,-1.1,0)" style="fill:context-stroke;fill-rule:evenodd;stroke:context-stroke;stroke-width:.625;stroke-linejoin:round"/></marker><rect id="rect31439-4" width="102.021" height="39.947" x="720" y="1010"/><marker id="Arrow2Lend-8-1" orient="auto" refX="0" refY="0" style="overflow:visible"><path id="path1933-81-6" d="M 8.7185878,4.0337352 -2.2072895,0.01601326 8.7185884,-4.0017078 c -1.7454984,2.3720609 -1.7354408,5.6174519 -6e-7,8.035443 z" transform="matrix(-1.1,0,0,-1.1,-1.1,0)" style="fill:context-stroke;fill-rule:evenodd;stroke:context-stroke;stroke-width:.625;stroke-linejoin:round"/></marker><rect id="rect53536-6" width="100" height="50" x="170" y="260"/><marker id="Arrow2Lend-66" orient="auto" refX="0" refY="0" style="overflow:visible"><path id="path1933-7" d="M 8.7185878,4.0337352 -2.2072895,0.01601326 8.7185884,-4.0017078 c -1.7454984,2.3720609 -1.7354408,5.6174519 -6e-7,8.035443 z" transform="matrix(-1.1,0,0,-1.1,-1.1,0)" style="fill:context-stroke;fill-rule:evenodd;stroke:context-stroke;stroke-width:.625;stroke-linejoin:round"/></marker><marker id="Arrow2Lend-93-3-9-6" orient="auto" refX="0" refY="0" style="overflow:visible"><path id="path1933-65-2-3-5" d="M 8.7185878,4.0337352 -2.2072895,0.01601326 8.7185884,-4.0017078 c -1.7454984,2.3720609 -1.7354408,5.6174519 -6e-7,8.035443 z" transform="matrix(-1.1,0,0,-1.1,-1.1,0)" style="fill:context-stroke;fill-rule:evenodd;stroke:context-stroke;stroke-width:.625;stroke-linejoin:round"/></marker><marker id="Arrow2Lend-7-6" orient="auto" refX="0" refY="0" style="overflow:visible"><path id="path1933-8-0" d="M 8.7185878,4.0337352 -2.2072895,0.01601326 8.7185884,-4.0017078 c -1.7454984,2.3720609 -1.7354408,5.6174519 -6e-7,8.035443 z" transform="matrix(-1.1,0,0,-1.1,-1.1,0)" style="fill:context-stroke;fill-rule:evenodd;stroke:context-stroke;stroke-width:.625;stroke-linejoin:round"/></marker><rect id="rect19564-2" width="40" height="30" x="400" y="390"/><marker id="Arrow2Lend-7-6-1" orient="auto" refX="0" refY="0" style="overflow:visible"><path id="path1933-8-0-0" d="M 8.7185878,4.0337352 -2.2072895,0.01601326 8.7185884,-4.0017078 c -1.7454984,2.3720609 -1.7354408,5.6174519 -6e-7,8.035443 z" transform="matrix(-1.1,0,0,-1.1,-1.1,0)" style="fill:context-stroke;fill-rule:evenodd;stroke:context-stroke;stroke-width:.625;stroke-linejoin:round"/></marker><rect id="rect19564-2-1" width="40" height="30" x="400" y="390"/><marker id="Arrow2Lend-7-6-1-4" orient="auto" refX="0" refY="0" style="overflow:visible"><path id="path1933-8-0-0-7" d="M 8.7185878,4.0337352 -2.2072895,0.01601326 8.7185884,-4.0017078 c -1.7454984,2.3720609 -1.7354408,5.6174519 -6e-7,8.035443 z" transform="matrix(-1.1,0,0,-1.1,-1.1,0)" style="fill:context-stroke;fill-rule:evenodd;stroke:context-stroke;stroke-width:.625;stroke-linejoin:round"/></marker><rect id="rect19564-2-1-4" width="40" height="30" x="400" y="390"/><marker id="Arrow2Lend-7-6-1-4-5" orient="auto" refX="0" refY="0" style="overflow:visible"><path id="path1933-8-0-0-7-2" d="M 8.7185878,4.0337352 -2.2072895,0.01601326 8.7185884,-4.0017078 c -1.7454984,2.3720609 -1.7354408,5.6174519 -6e-7,8.035443 z" transform="matrix(-1.1,0,0,-1.1,-1.1,0)" style="fill:context-stroke;fill-rule:evenodd;stroke:context-stroke;stroke-width:.625;stroke-linejoin:round"/></marker><rect id="rect19564-2-1-4-0" width="40" height="30" x="400" y="390"/><marker id="Arrow2Lend-83" orient="auto" refX="0" refY="0" style="overflow:visible"><path id="path1933-03" d="M 8.7185878,4.0337352 -2.2072895,0.01601326 8.7185884,-4.0017078 c -1.7454984,2.3720609 -1.7354408,5.6174519 -6e-7,8.035443 z" transform="matrix(-1.1,0,0,-1.1,-1.1,0)" style="fill:context-stroke;fill-rule:evenodd;stroke:context-stroke;stroke-width:.625;stroke-linejoin:round"/></marker><marker id="Arrow2Lend-66-3" orient="auto" refX="0" refY="0" style="overflow:visible"><path id="path1933-7-3" d="M 8.7185878,4.0337352 -2.2072895,0.01601326 8.7185884,-4.0017078 c -1.7454984,2.3720609 -1.7354408,5.6174519 -6e-7,8.035443 z" transform="matrix(-1.1,0,0,-1.1,-1.1,0)" style="fill:context-stroke;fill-rule:evenodd;stroke:context-stroke;stroke-width:.625;stroke-linejoin:round"/></marker><marker id="Arrow2Lend-93-3-9-6-2" orient="auto" refX="0" refY="0" style="overflow:visible"><path id="path1933-65-2-3-5-8" d="M 8.7185878,4.0337352 -2.2072895,0.01601326 8.7185884,-4.0017078 c -1.7454984,2.3720609 -1.7354408,5.6174519 -6e-7,8.035443 z" transform="matrix(-1.1,0,0,-1.1,-1.1,0)" style="fill:context-stroke;fill-rule:evenodd;stroke:context-stroke;stroke-width:.625;stroke-linejoin:round"/></marker><marker id="Arrow2Lend-23" orient="auto" refX="0" refY="0" style="overflow:visible"><path id="path1933-1" d="M 8.7185878,4.0337352 -2.2072895,0.01601326 8.7185884,-4.0017078 c -1.7454984,2.3720609 -1.7354408,5.6174519 -6e-7,8.035443 z" transform="matrix(-1.1,0,0,-1.1,-1.1,0)" style="fill:context-stroke;fill-rule:evenodd;stroke:context-stroke;stroke-width:.625;stroke-linejoin:round"/></marker></defs><g id="layer1"><rect id="rect57" width="101.55" height="51.733" x="19.16" y="16.095" style="fill:none;stroke-width:.264583"/><rect id="rect10214-3-7-1" width="32.177" height="8.127" x="78.408" y="152.231" style="fill:none;fill-opacity:1;stroke:#000;stroke-width:.193137;stroke-miterlimit:4;stroke-dasharray:none;stroke-opacity:1"/><rect id="rect10214-3-7-1-0" width="32.177" height="8.127" x="78.419" y="133.39" style="fill:none;fill-opacity:1;stroke:#000;stroke-width:.193137;stroke-miterlimit:4;stroke-dasharray:none;stroke-opacity:1"/><rect id="rect10214-3-7-1-0-1" width="32.177" height="8.127" x="78.419" y="121.199" style="fill:none;fill-opacity:1;stroke:#000;stroke-width:.193137;stroke-miterlimit:4;stroke-dasharray:none;stroke-opacity:1"/><rect id="rect10214-3-7-1-7" width="32.508" height="8.127" x="118.194" y="223.408" style="fill:none;fill-opacity:1;stroke:#000;stroke-width:.19413;stroke-miterlimit:4;stroke-dasharray:none;stroke-opacity:1"/><rect id="rect10214-3-7-1-7-6" width="32.508" height="8.127" x="101.94" y="264.043" style="fill:none;fill-opacity:1;stroke:#000;stroke-width:.19413;stroke-miterlimit:4;stroke-dasharray:none;stroke-opacity:1"/><rect id="rect10214-3-7-1-7-2" width="32.177" height="8.127" x="78.408" y="202.031" style="fill:none;fill-opacity:1;stroke:#000;stroke-width:.193137;stroke-miterlimit:4;stroke-dasharray:none;stroke-opacity:1"/><rect id="rect10214-3-7-1-0-2" width="32.177" height="8.127" x="78.408" y="189.841" style="fill:none;fill-opacity:1;stroke:#000;stroke-width:.193137;stroke-miterlimit:4;stroke-dasharray:none;stroke-opacity:1"/><rect id="rect10214-3-7-1-0-1-7" width="32.177" height="8.127" x="78.408" y="171.3" style="fill:none;fill-opacity:1;stroke:#000;stroke-width:.193137;stroke-miterlimit:4;stroke-dasharray:none;stroke-opacity:1"/><rect id="rect10214-3-7-1-0-1-0" width="32.177" height="8.127" x="78.419" y="109.008" style="fill:none;fill-opacity:1;stroke:#000;stroke-width:.193289;stroke-miterlimit:4;stroke-dasharray:none;stroke-opacity:1"/><path id="path12604" d="m 106.00314,257.94764 h 24.38132 l 14.22244,-20.31777 h -20.31778 l -6.09533,8.12711 -6.09532,-8.12711 H 91.780671 Z" style="fill:red;fill-opacity:.396761;stroke:#000;stroke-width:.172668px;stroke-linecap:butt;stroke-linejoin:miter;stroke-opacity:1"/><path id="path403" d="m 118.19379,272.17009 v 4.06355 H 77.558229 v -44.6991 h 26.413121 v 6.09533" style="fill:none;stroke:#000;stroke-width:.203177px;stroke-linecap:butt;stroke-linejoin:miter;stroke-opacity:1;marker-end:url(#Arrow2Lend)"/><path id="path405" d="m 118.19379,257.54129 v 6.09532" style="fill:none;stroke:#000;stroke-width:.203177px;stroke-linecap:butt;stroke-linejoin:miter;stroke-opacity:1;marker-end:url(#Arrow2Lend-0)"/><path id="path407" d="m 134.44801,231.53454 v 6.09533" style="fill:none;stroke:#000;stroke-width:.203177px;stroke-linecap:butt;stroke-linejoin:miter;stroke-opacity:1;marker-end:url(#Arrow2Lend-98)"/><path id="path459" d="m 52.916666,288.39583 113.770834,-3e-5 0,-209.020801 h -5.29167 l 0,203.729131 H 58.208333 l 0,-216.958297 h -5.291667 z" style="fill:#3cff00;fill-opacity:.5;stroke:#000;stroke-width:.237445px;stroke-linecap:butt;stroke-linejoin:miter;stroke-opacity:1"/><path id="path655" d="m 510,320 -45,25.98076 -45,25.98076 0,-51.96152 0,-51.96152 45,25.98076 z" transform="matrix(0.08937973,0,0,0.07820316,97.188863,88.046898)" style="fill:none;fill-rule:evenodd;stroke:#000;stroke-width:2.31193;stroke-miterlimit:4;stroke-dasharray:none;stroke-opacity:1"/><path id="path1900" d="m 110.59585,113.07188 h 24.13253" style="fill:none;stroke:#000;stroke-width:.16983px;stroke-linecap:butt;stroke-linejoin:miter;stroke-opacity:1;marker-end:url(#Arrow2Lend)"/><path id="path1900-5" d="m 142.77255,113.07188 h 18.09939" style="fill:none;stroke:#000;stroke-width:.147077px;stroke-linecap:butt;stroke-linejoin:miter;stroke-opacity:1;marker-end:url(#Arrow2Lend-04)"/><rect id="rect10214-3-7-1-0-1-0-5" width="32.508" height="8.127" x="78.617" y="80.737" style="fill:none;fill-opacity:1;stroke:#000;stroke-width:.194283;stroke-miterlimit:4;stroke-dasharray:none;stroke-opacity:1"/><rect id="rect10214-3-7-1-0-1-0-5-4" width="92.604" height="39.688" x="-103.188" y="7.938" transform="rotate(-90)" style="fill:#0ff;fill-opacity:.5;stroke:#000;stroke-width:.72462;stroke-miterlimit:4;stroke-dasharray:none;stroke-opacity:1"/><rect id="rect10214-3-7-1-0-1-0-5-4-7" width="105.833" height="39.688" x="-211.667" y="7.938" transform="rotate(-90)" style="fill:#0ff;fill-opacity:.5;stroke:#000;stroke-width:.77465;stroke-miterlimit:4;stroke-dasharray:none;stroke-opacity:1"/><path id="path655-0" d="m 510,320 -45,25.98076 -45,25.98076 0,-51.96152 0,-51.96152 45,25.98076 z" transform="matrix(0.09030122,0,0,0.07820316,97.050644,59.775304)" style="fill:none;fill-rule:evenodd;stroke:#000;stroke-width:2.31193;stroke-miterlimit:4;stroke-dasharray:none;stroke-opacity:1"/><path id="path1900-6" d="m 110.59586,84.800338 h 24.38133" style="fill:none;stroke:#000;stroke-width:.170703px;stroke-linecap:butt;stroke-linejoin:miter;stroke-opacity:1;marker-end:url(#Arrow2Lend-8)"/><path id="path1900-5-7" d="m 143.1043,84.800338 h 18.28599" style="fill:none;stroke:#000;stroke-width:.147833px;stroke-linecap:butt;stroke-linejoin:miter;stroke-opacity:1;marker-end:url(#Arrow2Lend-04-9)"/><path id="path655-6" d="m 510,320 -45,25.98076 -45,25.98076 0,-51.96152 0,-51.96152 45,25.98076 z" transform="matrix(0.08937973,0,0,0.07820316,97.188863,100.23753)" style="fill:none;fill-rule:evenodd;stroke:#000;stroke-width:2.31193;stroke-miterlimit:4;stroke-dasharray:none;stroke-opacity:1"/><path id="path1900-4" d="m 110.59585,125.26251 h 24.13253" style="fill:none;stroke:#000;stroke-width:.16983px;stroke-linecap:butt;stroke-linejoin:miter;stroke-opacity:1;marker-end:url(#Arrow2Lend-74)"/><path id="path1900-5-8" d="m 142.77255,125.26251 h 18.09939" style="fill:none;stroke:#000;stroke-width:.147077px;stroke-linecap:butt;stroke-linejoin:miter;stroke-opacity:1;marker-end:url(#Arrow2Lend-04-4)"/><path id="path655-9" d="m 510,320 -45,25.98076 -45,25.98076 0,-51.96152 0,-51.96152 45,25.98076 z" transform="matrix(0.08937973,0,0,0.07820316,97.188863,112.4282)" style="fill:none;fill-rule:evenodd;stroke:#000;stroke-width:2.31193;stroke-miterlimit:4;stroke-dasharray:none;stroke-opacity:1"/><path id="path1900-51" d="m 110.59585,137.45317 h 24.13253" style="fill:none;stroke:#000;stroke-width:.16983px;stroke-linecap:butt;stroke-linejoin:miter;stroke-opacity:1;marker-end:url(#Arrow2Lend-79)"/><path id="path1900-5-85" d="m 142.77255,137.45317 h 18.09939" style="fill:none;stroke:#000;stroke-width:.147077px;stroke-linecap:butt;stroke-linejoin:miter;stroke-opacity:1;marker-end:url(#Arrow2Lend-04-40)"/><path id="path655-95" d="m 510,320 -45,25.98076 -45,25.98076 0,-51.96152 0,-51.96152 45,25.98076 z" transform="matrix(0.08937973,0,0,0.07820316,97.178038,131.26862)" style="fill:none;fill-rule:evenodd;stroke:#000;stroke-width:2.31193;stroke-miterlimit:4;stroke-dasharray:none;stroke-opacity:1"/><path id="path1900-8" d="m 110.58503,156.29363 h 24.13253" style="fill:none;stroke:#000;stroke-width:.16983px;stroke-linecap:butt;stroke-linejoin:miter;stroke-opacity:1;marker-end:url(#Arrow2Lend-5)"/><path id="path1900-5-0" d="m 142.76173,156.29363 h 18.09939" style="fill:none;stroke:#000;stroke-width:.147077px;stroke-linecap:butt;stroke-linejoin:miter;stroke-opacity:1;marker-end:url(#Arrow2Lend-04-7)"/><path id="path655-6-1" d="m 510,320 -45,25.98076 -45,25.98076 0,-51.96152 0,-51.96152 45,25.98076 z" transform="matrix(0.08937973,0,0,0.07820316,97.178038,150.3385)" style="fill:none;fill-rule:evenodd;stroke:#000;stroke-width:2.31193;stroke-miterlimit:4;stroke-dasharray:none;stroke-opacity:1"/><path id="path1900-4-3" d="m 110.58503,175.36351 h 24.13253" style="fill:none;stroke:#000;stroke-width:.16983px;stroke-linecap:butt;stroke-linejoin:miter;stroke-opacity:1;marker-end:url(#Arrow2Lend-74-5)"/><path id="path1900-5-8-6" d="m 142.76173,175.36351 h 18.09939" style="fill:none;stroke:#000;stroke-width:.147077px;stroke-linecap:butt;stroke-linejoin:miter;stroke-opacity:1;marker-end:url(#Arrow2Lend-04-4-6)"/><path id="path655-9-5" d="m 510,320 -45,25.98076 -45,25.98076 0,-51.96152 0,-51.96152 45,25.98076 z" transform="matrix(0.08937973,0,0,0.07820316,97.178038,168.8792)" style="fill:none;fill-rule:evenodd;stroke:#000;stroke-width:2.31193;stroke-miterlimit:4;stroke-dasharray:none;stroke-opacity:1"/><path id="path1900-51-8" d="m 110.58503,193.90421 h 24.13253" style="fill:none;stroke:#000;stroke-width:.16983px;stroke-linecap:butt;stroke-linejoin:miter;stroke-opacity:1;marker-end:url(#Arrow2Lend-79-5)"/><path id="path1900-5-85-1" d="m 142.76173,193.90421 h 18.09939" style="fill:none;stroke:#000;stroke-width:.147077px;stroke-linecap:butt;stroke-linejoin:miter;stroke-opacity:1;marker-end:url(#Arrow2Lend-04-40-6)"/><path id="path655-9-5-1" d="m 510,320 -45,25.98076 -45,25.98076 0,-51.96152 0,-51.96152 45,25.98076 z" transform="matrix(0.08937973,0,0,0.07820316,97.178038,181.06987)" style="fill:none;fill-rule:evenodd;stroke:#000;stroke-width:2.31193;stroke-miterlimit:4;stroke-dasharray:none;stroke-opacity:1"/><path id="path1900-51-8-4" d="m 110.58503,206.09487 h 24.13253" style="fill:none;stroke:#000;stroke-width:.16983px;stroke-linecap:butt;stroke-linejoin:miter;stroke-opacity:1;marker-end:url(#Arrow2Lend-79-5-7)"/><path id="path1900-5-85-1-3" d="m 142.76173,206.09487 h 18.09939" style="fill:none;stroke:#000;stroke-width:.147077px;stroke-linecap:butt;stroke-linejoin:miter;stroke-opacity:1;marker-end:url(#Arrow2Lend-04-40-6-2)"/><path id="path3318" d="M 58.219158,111.35427 H 78.329593" style="fill:none;stroke:#000;stroke-width:.198977;stroke-linecap:butt;stroke-linejoin:miter;stroke-miterlimit:4;stroke-dasharray:none;stroke-opacity:1;marker-end:url(#Arrow2Lend)"/><path id="path3318-43" d="M 58.20623,82.549996 H 78.316665" style="fill:none;stroke:#000;stroke-width:.198977;stroke-linecap:butt;stroke-linejoin:miter;stroke-miterlimit:4;stroke-dasharray:none;stroke-opacity:1;marker-end:url(#Arrow2Lend-23)"/><path id="path3318-71" d="M 58.206232,70.908332 H 78.316667" style="fill:none;stroke:#000;stroke-width:.198977;stroke-linecap:butt;stroke-linejoin:miter;stroke-miterlimit:4;stroke-dasharray:none;stroke-opacity:1;marker-end:url(#Arrow2Lend-83)"/><path id="path3318-7" d="M 77.798324,112.94177 H 48.164991" style="fill:none;stroke:#000;stroke-width:.2;stroke-linecap:butt;stroke-linejoin:miter;stroke-miterlimit:4;stroke-dasharray:none;stroke-opacity:1;marker-end:url(#Arrow2Lend-66)"/><path id="path3318-7-8" d="M 78.845834,74.083332 H 49.212501" style="fill:none;stroke:#000;stroke-width:.2;stroke-linecap:butt;stroke-linejoin:miter;stroke-miterlimit:4;stroke-dasharray:none;stroke-opacity:1;marker-end:url(#Arrow2Lend-66-3)"/><path id="path3318-5" d="M 58.308693,137.45317 H 78.419129" style="fill:none;stroke:#000;stroke-width:.198977;stroke-linecap:butt;stroke-linejoin:miter;stroke-miterlimit:4;stroke-dasharray:none;stroke-opacity:1;marker-end:url(#Arrow2Lend-93)"/><path id="path3318-5-8" d="M 58.297868,156.29363 H 78.408304" style="fill:none;stroke:#000;stroke-width:.198977;stroke-linecap:butt;stroke-linejoin:miter;stroke-miterlimit:4;stroke-dasharray:none;stroke-opacity:1;marker-end:url(#Arrow2Lend-93-9)"/><path id="path3318-4" d="M 58.308693,125.26251 H 78.419129" style="fill:none;stroke:#000;stroke-width:.198977;stroke-linecap:butt;stroke-linejoin:miter;stroke-miterlimit:4;stroke-dasharray:none;stroke-opacity:1;marker-end:url(#Arrow2Lend-6)"/><path id="path3318-5-9" d="M 58.297868,175.36351 H 78.408304" style="fill:none;stroke:#000;stroke-width:.198977;stroke-linecap:butt;stroke-linejoin:miter;stroke-miterlimit:4;stroke-dasharray:none;stroke-opacity:1;marker-end:url(#Arrow2Lend-93-3)"/><path id="path3318-5-9-8" d="M 58.297868,193.90421 H 78.408304" style="fill:none;stroke:#000;stroke-width:.198977;stroke-linecap:butt;stroke-linejoin:miter;stroke-miterlimit:4;stroke-dasharray:none;stroke-opacity:1;marker-end:url(#Arrow2Lend-93-3-0)"/><path id="path3318-5-9-0" d="M 58.001033,207.96249 H 78.111468" style="fill:none;stroke:#000;stroke-width:.198977;stroke-linecap:butt;stroke-linejoin:miter;stroke-miterlimit:4;stroke-dasharray:none;stroke-opacity:1;marker-end:url(#Arrow2Lend-93-3-9)"/><path id="path3318-5-9-0-7" d="M 47.624999,204.78749 H 77.7875" style="fill:none;stroke:#000;stroke-width:.201778;stroke-linecap:butt;stroke-linejoin:miter;stroke-miterlimit:4;stroke-dasharray:none;stroke-opacity:1;marker-end:url(#Arrow2Lend-93-3-9-6)"/><path id="path3318-5-9-0-7-1" d="M 47.624997,86.783334 H 77.787498" style="fill:none;stroke:#000;stroke-width:.201778;stroke-linecap:butt;stroke-linejoin:miter;stroke-miterlimit:4;stroke-dasharray:none;stroke-opacity:1;marker-end:url(#Arrow2Lend-93-3-9-6-2)"/><g id="g492" transform="matrix(0.71172684,0,0,0.7679158,44.058683,64.928828)"><path id="path407-9" d="m 127,198.4375 v 7.9375" style="fill:none;stroke:#000;stroke-width:.264583px;stroke-linecap:butt;stroke-linejoin:miter;stroke-opacity:1;marker-end:url(#Arrow2Lend-98-4)"/><path id="path292" d="M 18.520833,198.43749 H 127 v 0" style="fill:none;stroke:#000;stroke-width:.264583px;stroke-linecap:butt;stroke-linejoin:miter;stroke-opacity:1"/></g><rect id="rect1618" width="32.508" height="12.191" x="175.083" y="241.694" ry="0" style="fill:#ff0;fill-opacity:.5;fill-rule:evenodd;stroke:#000;stroke-width:.202377;stroke-miterlimit:4;stroke-dasharray:none;stroke-opacity:1"/><path id="path3114" d="m 137.69886,247.78896 h 37.3847" style="fill:none;stroke:#000;stroke-width:.192961px;stroke-linecap:butt;stroke-linejoin:miter;stroke-opacity:1;marker-end:url(#Arrow2Lend-9)"/><path id="path4615" d="m 179.14711,253.88428 v 26.41311 H 73.494676 v -32.50844 h 24.381325 v 0" style="fill:none;stroke:#000;stroke-width:.203177px;stroke-linecap:butt;stroke-linejoin:miter;stroke-opacity:1;marker-end:url(#Arrow2Lend-9)"/><path id="path5065" d="M 57.240458,268.10672 H 101.93956" style="fill:none;stroke:#000;stroke-width:.203177px;stroke-linecap:butt;stroke-linejoin:miter;stroke-opacity:1;marker-end:url(#Arrow2Lend-2)"/><text style="font-size:15.9518px;line-height:1.25;font-family:sans-serif;text-align:center;letter-spacing:0;white-space:pre;shape-inside:url(#rect8082)" id="text8080" x="10.641" y="0" transform="matrix(0.33965314,0,0,0.33965314,4.4813966,-71.123631)" xml:space="preserve"><tspan id="tspan15514" x="323.979" y="1004.553">AC</tspan></text><text style="font-size:26.6667px;line-height:1.25;font-family:sans-serif;letter-spacing:0;white-space:pre;shape-inside:url(#rect21842)" id="text21840" transform="matrix(0.20110437,0,0,0.20317773,57.126067,62.928941)" xml:space="preserve"><tspan id="tspan15516" x="170" y="714.329">IR</tspan></text><text style="font-size:26.6667px;line-height:1.25;font-family:sans-serif;letter-spacing:0;white-space:pre;shape-inside:url(#rect28104)" id="text28102" transform="matrix(0.20110437,0,0,0.20317773,56.763398,64.967337)" xml:space="preserve"><tspan id="tspan15518" x="170" y="644.329">R1</tspan></text><text style="font-size:26.6667px;line-height:1.25;font-family:sans-serif;letter-spacing:0;white-space:pre;shape-inside:url(#rect29760)" id="text29758" transform="matrix(0.20110437,0,0,0.20317773,56.652108,56.619947)" xml:space="preserve"><tspan id="tspan15520" x="170" y="594.329">R2</tspan></text><text style="font-size:26.6667px;line-height:1.25;font-family:sans-serif;letter-spacing:0;white-space:pre;shape-inside:url(#rect32868)" id="text32866" transform="matrix(0.20110437,0,0,0.20317773,56.679603,49.699772)" xml:space="preserve"><tspan id="tspan15522" x="170" y="534.329">R3</tspan></text><text style="font-size:26.6667px;line-height:1.25;font-family:sans-serif;letter-spacing:0;white-space:pre;shape-inside:url(#rect38550)" id="text38548" transform="matrix(0.20110437,0,0,0.20317773,56.618418,45.081578)" xml:space="preserve"><tspan id="tspan15524" x="170" y="464.329">R4</tspan></text><text style="font-size:26.6667px;line-height:1.25;font-family:sans-serif;letter-spacing:0;white-space:pre;shape-inside:url(#rect48945)" id="text48943" transform="matrix(0.20110437,0,0,0.20317773,58.689689,45.040557)" xml:space="preserve"><tspan id="tspan15526" x="160" y="404.329">R5</tspan></text><text style="font-size:26.6667px;line-height:1.25;font-family:sans-serif;letter-spacing:0;white-space:pre;shape-inside:url(#rect50836)" id="text50834" transform="matrix(0.20110437,0,0,0.20317773,54.662365,45.08156)" xml:space="preserve"><tspan id="tspan15528" x="180" y="344.329">PC</tspan></text><text style="font-size:26.6667px;line-height:1.25;font-family:sans-serif;letter-spacing:0;white-space:pre;shape-inside:url(#rect53536)" id="text53534" transform="matrix(0.20317772,0,0,0.20317772,55.555302,29.000647)" xml:space="preserve"><tspan id="tspan15530" x="170" y="284.329">DR</tspan></text><rect id="rect10214-3-7-1-0-1-0-5-6" width="32.508" height="8.127" x="78.617" y="68.455" style="fill:none;fill-opacity:1;stroke:#000;stroke-width:.194283;stroke-miterlimit:4;stroke-dasharray:none;stroke-opacity:1"/><text style="font-size:26.6667px;line-height:1.25;font-family:sans-serif;letter-spacing:0;white-space:pre;shape-inside:url(#rect53536-6)" id="text53534-4" transform="matrix(0.20317772,0,0,0.20317772,53.703401,16.719373)" xml:space="preserve"><tspan id="tspan15532" x="170" y="284.329">DAR</tspan></text><path id="path1672" d="m 150.8125,205.84583 v 11.1125 H 190.5 V 241.3" style="fill:none;stroke:#000;stroke-width:.203177px;stroke-linecap:butt;stroke-linejoin:miter;stroke-opacity:1;marker-end:url(#Arrow2Lend-7)"/><text style="font-style:normal;font-weight:400;font-size:26.6667px;line-height:1.25;font-family:sans-serif;white-space:pre;shape-inside:url(#rect4329);fill:#000;fill-opacity:1;stroke:none" id="text4327" transform="matrix(0.20317772,0,0,0.20317772,49.506202,66.066691)" xml:space="preserve"><tspan id="tspan15534" x="650" y="904.329">Control</tspan></text><path id="path12316" d="m 187.27423,253.88428 v 14.22244" style="fill:none;stroke:#000;stroke-width:.203177px;stroke-linecap:butt;stroke-linejoin:miter;stroke-opacity:1;marker-end:url(#Arrow2Lend-7)"/><path id="path12316-1" d="m 193.36955,253.88428 v 14.22244" style="fill:none;stroke:#000;stroke-width:.203177px;stroke-linecap:butt;stroke-linejoin:miter;stroke-opacity:1;marker-end:url(#Arrow2Lend-7-3)"/><path id="path12320" d="m 199.46489,253.88428 v 14.22244" style="fill:none;stroke:#000;stroke-width:.203177px;stroke-linecap:butt;stroke-linejoin:miter;stroke-opacity:1;marker-end:url(#Arrow2Lend-9)"/><text style="font-style:normal;font-weight:400;font-size:16px;line-height:1.25;font-family:sans-serif;white-space:pre;shape-inside:url(#rect17624);fill:#000;fill-opacity:1;stroke:none" id="text17622" transform="matrix(-0.00119391,0.20317421,-0.20317421,-0.00119391,409.25917,147.12545)" xml:space="preserve"><tspan id="tspan15536" x="610" y="1094.597">increment</tspan></text><text style="font-style:normal;font-weight:400;font-size:16px;line-height:1.25;font-family:sans-serif;white-space:pre;shape-inside:url(#rect31439);fill:#000;fill-opacity:1;stroke:none" id="text31437" transform="matrix(0,0.20317772,-0.20317772,0,400.45776,123.6193)" xml:space="preserve"><tspan id="tspan15538" x="720" y="1024.597">write_enable</tspan></text><text style="font-style:normal;font-weight:400;font-size:16px;line-height:1.25;font-family:sans-serif;white-space:pre;shape-inside:url(#rect31439-4);fill:#000;fill-opacity:1;stroke:none" id="text31437-5" transform="matrix(0,0.20317772,-0.20317772,0,406.6954,123.4399)" xml:space="preserve"><tspan id="tspan15540" x="720" y="1024.597">read_enable</tspan></text><text style="font-style:normal;font-weight:400;font-size:26.6667px;line-height:1.25;font-family:sans-serif;white-space:pre;shape-inside:url(#rect48818);fill:#000;fill-opacity:1;stroke:none" id="text48816" transform="matrix(0.20317772,0,0,0.20317772,52.098836,67.396746)" xml:space="preserve"><tspan id="tspan15542" x="300" y="914.329">ALU</tspan></text><text style="font-size:26.6667px;line-height:1.25;font-family:sans-serif;text-align:center;letter-spacing:0;white-space:pre;shape-inside:url(#rect56297)" id="text56295" x="52.122" y="0" transform="matrix(0.26458333,0,0,0.26458333,-17.437342,30.828239)" xml:space="preserve"><tspan id="tspan15544" x="133.769" y="84.329">Data </tspan><tspan id="tspan15546" x="116.178" y="117.662">Memory</tspan></text><text style="font-size:26.6667px;line-height:1.25;font-family:sans-serif;text-align:center;letter-spacing:0;white-space:pre;shape-inside:url(#rect60571)" id="text60569" x="71.875" y="0" transform="matrix(0.26458333,0,0,0.26458333,-92.840154,133.90066)" xml:space="preserve"><tspan id="tspan15548" x="382.233" y="84.329">Instruction </tspan><tspan id="tspan15550" x="401.178" y="117.662">Memory</tspan></text><path id="path7590" d="m 110.59583,111.12495 h 2.64583 v -7.9375 H 107.95 v 5.29167" style="fill:none;stroke:#000;stroke-width:.264583px;stroke-linecap:butt;stroke-linejoin:miter;stroke-opacity:1;marker-end:url(#Arrow2Lend-7)"/><text style="font-size:16px;line-height:1.25;font-family:sans-serif;white-space:pre;shape-inside:url(#rect19564)" id="text19562" transform="matrix(0.26458333,0,0,0.26458333,1.1312623,-4.2664063)" xml:space="preserve"><tspan id="tspan19566">+1</tspan></text><path id="path7590-7" d="m 110.59583,154.51657 h 2.64583 v -7.9375 H 107.95 v 5.29167" style="fill:none;stroke:#000;stroke-width:.264583px;stroke-linecap:butt;stroke-linejoin:miter;stroke-opacity:1;marker-end:url(#Arrow2Lend-7-6)"/><text style="font-size:16px;line-height:1.25;font-family:sans-serif;white-space:pre;shape-inside:url(#rect19564-2)" id="text19562-9" transform="matrix(0.26458333,0,0,0.26458333,1.131263,39.12525)" xml:space="preserve"><tspan id="tspan26168" x="400" y="404.597">+1</tspan></text><path id="path7590-7-3" d="m 110.59583,173.56662 h 2.64583 v -7.9375 H 107.95 v 5.29167" style="fill:none;stroke:#000;stroke-width:.264583px;stroke-linecap:butt;stroke-linejoin:miter;stroke-opacity:1;marker-end:url(#Arrow2Lend-7-6-1)"/><text style="font-size:16px;line-height:1.25;font-family:sans-serif;white-space:pre;shape-inside:url(#rect19564-2-1)" id="text19562-9-6" transform="matrix(0.26458333,0,0,0.26458333,1.131267,58.175299)" xml:space="preserve"><tspan id="tspan26583" x="400" y="404.597">+1</tspan></text><path id="path7590-7-3-9" d="m 110.59583,192.08749 h 2.64583 v -7.9375 H 107.95 v 5.29167" style="fill:none;stroke:#000;stroke-width:.264583px;stroke-linecap:butt;stroke-linejoin:miter;stroke-opacity:1;marker-end:url(#Arrow2Lend-7-6-1-4)"/><text style="font-size:16px;line-height:1.25;font-family:sans-serif;white-space:pre;shape-inside:url(#rect19564-2-1-4)" id="text19562-9-6-6" transform="matrix(0.26458333,0,0,0.26458333,1.131271,76.696183)" xml:space="preserve"><tspan id="tspan27441" x="400" y="404.597">+1</tspan></text><path id="path7590-7-3-9-0" d="m 132.48197,272.2563 v 2.64583 h 7.9375 v -5.29166 h -5.29167" style="fill:none;stroke:#000;stroke-width:.264583px;stroke-linecap:butt;stroke-linejoin:miter;stroke-opacity:1;marker-end:url(#Arrow2Lend-7-6-1-4-5)"/><text style="font-size:16px;line-height:1.25;font-family:sans-serif;white-space:pre;shape-inside:url(#rect19564-2-1-4-0)" id="text19562-9-6-6-9" transform="matrix(0.26458333,0,0,0.26458333,35.238002,166.18904)" xml:space="preserve"><tspan id="tspan39232" x="400" y="404.597">+1</tspan></text><text style="font-size:24px;line-height:1.25;font-family:sans-serif;white-space:pre;shape-inside:url(#rect30062)" id="text30060" transform="matrix(0.26458333,0,0,0.26458333,10.209596,-0.90964284)" xml:space="preserve">R</text><path id="path44245" d="m 95.249999,89.958332 v 7.9375 H 50.270833 v 0" style="fill:none;stroke:#000;stroke-width:.264583px;stroke-linecap:butt;stroke-linejoin:miter;stroke-opacity:1;marker-end:url(#Arrow1Lstart)"/></g></svg>