<svg xmlns="http://www.w3.org/2000/svg" xmlns:svg="http://www.w3.org/2000/svg" xmlns:xlink="http://www.w3.org/1999/xlink" id="svg5" width="210mm" height="297mm" version="1.1" viewBox="0 0 210 297"><defs id="defs2"><rect id="rect60571" width="210" height="80" x="350" y="60"/><rect id="rect56297" width="220" height="80" x="60" y="60"/><rect id="rect48818" width="100" height="50" x="300" y="890"/><rect id="rect31439" width="111.138" height="49.559" x="720" y="1010"/><rect id="rect17624" width="150" height="50" x="610" y="1080"/><rect id="rect4329" width="180" height="50" x="650" y="880"/><rect id="rect53536" width="100" height="50" x="170" y="260"/><rect id="rect50836" width="80" height="40" x="180" y="320"/><rect id="rect48945" width="70" height="50" x="160" y="380"/><linearGradient id="linearGradient45989"><stop id="stop45985" offset="0" style="stop-color:#3cff00;stop-opacity:1"/><stop id="stop45987" offset="1" style="stop-color:#3cff00;stop-opacity:0"/></linearGradient><rect id="rect42162" width="80" height="40" x="160" y="390"/><rect id="rect38550" width="70" height="40" x="170" y="440"/><rect id="rect32868" width="90" height="50" x="170" y="510"/><rect id="rect29760" width="80" height="40" x="170" y="570"/><rect id="rect28104" width="100" height="40" x="170" y="620"/><rect id="rect21842" width="140" height="60" x="170" y="690"/><rect id="rect8082" width="90" height="20" x="290" y="990"/><marker id="Arrow2Lend" orient="auto" refX="0" refY="0" style="overflow:visible"><path id="path1933" d="M 8.7185878,4.0337352 L -2.2072895,0.016013256 L 8.7185884,-4.0017078 C 6.9730900,-1.6296469 6.9831476,1.6157441 8.7185878,4.0337352 z" transform="scale(1.1) rotate(180) translate(1,0)" style="stroke:context-stroke;fill-rule:evenodd;fill:context-stroke;stroke-width:.625;stroke-linejoin:round"/></marker><linearGradient id="linearGradient1236"><stop id="stop1234" offset="0" style="stop-color:#000;stop-opacity:1"/></linearGradient><marker id="Arrow2Lend-9" orient="auto" refX="0" refY="0" style="overflow:visible"><path id="path1933-0" d="M 8.7185878,4.0337352 -2.2072895,0.01601326 8.7185884,-4.0017078 c -1.7454984,2.3720609 -1.7354408,5.6174519 -6e-7,8.035443 z" transform="matrix(-1.1,0,0,-1.1,-1.1,0)" style="fill:context-stroke;fill-rule:evenodd;stroke:context-stroke;stroke-width:.625;stroke-linejoin:round"/></marker><marker id="Arrow2Lend-7" orient="auto" refX="0" refY="0" style="overflow:visible"><path id="path1933-8" d="M 8.7185878,4.0337352 -2.2072895,0.01601326 8.7185884,-4.0017078 c -1.7454984,2.3720609 -1.7354408,5.6174519 -6e-7,8.035443 z" transform="matrix(-1.1,0,0,-1.1,-1.1,0)" style="fill:context-stroke;fill-rule:evenodd;stroke:context-stroke;stroke-width:.625;stroke-linejoin:round"/></marker><marker id="Arrow2Lend-2" orient="auto" refX="0" refY="0" style="overflow:visible"><path id="path1933-86" d="M 8.7185878,4.0337352 -2.2072895,0.01601326 8.7185884,-4.0017078 c -1.7454984,2.3720609 -1.7354408,5.6174519 -6e-7,8.035443 z" transform="matrix(-1.1,0,0,-1.1,-1.1,0)" style="fill:context-stroke;fill-rule:evenodd;stroke:context-stroke;stroke-width:.625;stroke-linejoin:round"/></marker><marker id="Arrow2Lend-0" orient="auto" refX="0" refY="0" style="overflow:visible"><path id="path1933-3" d="M 8.7185878,4.0337352 -2.2072895,0.01601326 8.7185884,-4.0017078 c -1.7454984,2.3720609 -1.7354408,5.6174519 -6e-7,8.035443 z" transform="matrix(-1.1,0,0,-1.1,-1.1,0)" style="fill:context-stroke;fill-rule:evenodd;stroke:context-stroke;stroke-width:.625;stroke-linejoin:round"/></marker><marker id="Arrow2Lend-98" orient="auto" refX="0" refY="0" style="overflow:visible"><path id="path1933-6" d="M 8.7185878,4.0337352 -2.2072895,0.01601326 8.7185884,-4.0017078 c -1.7454984,2.3720609 -1.7354408,5.6174519 -6e-7,8.035443 z" transform="matrix(-1.1,0,0,-1.1,-1.1,0)" style="fill:context-stroke;fill-rule:evenodd;stroke:context-stroke;stroke-width:.625;stroke-linejoin:round"/></marker><marker id="Arrow2Lend-98-8" orient="auto" refX="0" refY="0" style="overflow:visible"><path id="path1933-6-2" d="M 8.7185878,4.0337352 -2.2072895,0.01601326 8.7185884,-4.0017078 c -1.7454984,2.3720609 -1.7354408,5.6174519 -6e-7,8.035443 z" transform="matrix(-1.1,0,0,-1.1,-1.1,0)" style="fill:context-stroke;fill-rule:evenodd;stroke:context-stroke;stroke-width:.625;stroke-linejoin:round"/></marker><marker id="Arrow2Lend-98-8-3" orient="auto" refX="0" refY="0" style="overflow:visible"><path id="path1933-6-2-1" d="M 8.7185878,4.0337352 -2.2072895,0.01601326 8.7185884,-4.0017078 c -1.7454984,2.3720609 -1.7354408,5.6174519 -6e-7,8.035443 z" transform="matrix(-1.1,0,0,-1.1,-1.1,0)" style="fill:context-stroke;fill-rule:evenodd;stroke:context-stroke;stroke-width:.625;stroke-linejoin:round"/></marker><marker id="Arrow2Lend-98-8-3-6" orient="auto" refX="0" refY="0" style="overflow:visible"><path id="path1933-6-2-1-7" d="M 8.7185878,4.0337352 -2.2072895,0.01601326 8.7185884,-4.0017078 c -1.7454984,2.3720609 -1.7354408,5.6174519 -6e-7,8.035443 z" transform="matrix(-1.1,0,0,-1.1,-1.1,0)" style="fill:context-stroke;fill-rule:evenodd;stroke:context-stroke;stroke-width:.625;stroke-linejoin:round"/></marker><marker id="Arrow2Lend-98-8-3-6-6" orient="auto" refX="0" refY="0" style="overflow:visible"><path id="path1933-6-2-1-7-5" d="M 8.7185878,4.0337352 -2.2072895,0.01601326 8.7185884,-4.0017078 c -1.7454984,2.3720609 -1.7354408,5.6174519 -6e-7,8.035443 z" transform="matrix(-1.1,0,0,-1.1,-1.1,0)" style="fill:context-stroke;fill-rule:evenodd;stroke:context-stroke;stroke-width:.625;stroke-linejoin:round"/></marker><marker id="Arrow2Lend-98-8-3-6-6-9" orient="auto" refX="0" refY="0" style="overflow:visible"><path id="path1933-6-2-1-7-5-3" d="M 8.7185878,4.0337352 -2.2072895,0.01601326 8.7185884,-4.0017078 c -1.7454984,2.3720609 -1.7354408,5.6174519 -6e-7,8.035443 z" transform="matrix(-1.1,0,0,-1.1,-1.1,0)" style="fill:context-stroke;fill-rule:evenodd;stroke:context-stroke;stroke-width:.625;stroke-linejoin:round"/></marker><marker id="Arrow2Lend-76" orient="auto" refX="0" refY="0" style="overflow:visible"><path id="path1933-9" d="M 8.7185878,4.0337352 -2.2072895,0.01601326 8.7185884,-4.0017078 c -1.7454984,2.3720609 -1.7354408,5.6174519 -6e-7,8.035443 z" transform="matrix(-1.1,0,0,-1.1,-1.1,0)" style="fill:context-stroke;fill-rule:evenodd;stroke:context-stroke;stroke-width:.625;stroke-linejoin:round"/></marker><marker id="Arrow2Lend-04" orient="auto" refX="0" refY="0" style="overflow:visible"><path id="path1933-80" d="M 8.7185878,4.0337352 -2.2072895,0.01601326 8.7185884,-4.0017078 c -1.7454984,2.3720609 -1.7354408,5.6174519 -6e-7,8.035443 z" transform="matrix(-1.1,0,0,-1.1,-1.1,0)" style="fill:context-stroke;fill-rule:evenodd;stroke:context-stroke;stroke-width:.625;stroke-linejoin:round"/></marker><marker id="Arrow2Lend-74" orient="auto" refX="0" refY="0" style="overflow:visible"><path id="path1933-63" d="M 8.7185878,4.0337352 -2.2072895,0.01601326 8.7185884,-4.0017078 c -1.7454984,2.3720609 -1.7354408,5.6174519 -6e-7,8.035443 z" transform="matrix(-1.1,0,0,-1.1,-1.1,0)" style="fill:context-stroke;fill-rule:evenodd;stroke:context-stroke;stroke-width:.625;stroke-linejoin:round"/></marker><marker id="Arrow2Lend-04-4" orient="auto" refX="0" refY="0" style="overflow:visible"><path id="path1933-80-4" d="M 8.7185878,4.0337352 -2.2072895,0.01601326 8.7185884,-4.0017078 c -1.7454984,2.3720609 -1.7354408,5.6174519 -6e-7,8.035443 z" transform="matrix(-1.1,0,0,-1.1,-1.1,0)" style="fill:context-stroke;fill-rule:evenodd;stroke:context-stroke;stroke-width:.625;stroke-linejoin:round"/></marker><marker id="Arrow2Lend-79" orient="auto" refX="0" refY="0" style="overflow:visible"><path id="path1933-94" d="M 8.7185878,4.0337352 -2.2072895,0.01601326 8.7185884,-4.0017078 c -1.7454984,2.3720609 -1.7354408,5.6174519 -6e-7,8.035443 z" transform="matrix(-1.1,0,0,-1.1,-1.1,0)" style="fill:context-stroke;fill-rule:evenodd;stroke:context-stroke;stroke-width:.625;stroke-linejoin:round"/></marker><marker id="Arrow2Lend-04-40" orient="auto" refX="0" refY="0" style="overflow:visible"><path id="path1933-80-2" d="M 8.7185878,4.0337352 -2.2072895,0.01601326 8.7185884,-4.0017078 c -1.7454984,2.3720609 -1.7354408,5.6174519 -6e-7,8.035443 z" transform="matrix(-1.1,0,0,-1.1,-1.1,0)" style="fill:context-stroke;fill-rule:evenodd;stroke:context-stroke;stroke-width:.625;stroke-linejoin:round"/></marker><marker id="Arrow2Lend-5" orient="auto" refX="0" refY="0" style="overflow:visible"><path id="path1933-30" d="M 8.7185878,4.0337352 -2.2072895,0.01601326 8.7185884,-4.0017078 c -1.7454984,2.3720609 -1.7354408,5.6174519 -6e-7,8.035443 z" transform="matrix(-1.1,0,0,-1.1,-1.1,0)" style="fill:context-stroke;fill-rule:evenodd;stroke:context-stroke;stroke-width:.625;stroke-linejoin:round"/></marker><marker id="Arrow2Lend-04-7" orient="auto" refX="0" refY="0" style="overflow:visible"><path id="path1933-80-0" d="M 8.7185878,4.0337352 -2.2072895,0.01601326 8.7185884,-4.0017078 c -1.7454984,2.3720609 -1.7354408,5.6174519 -6e-7,8.035443 z" transform="matrix(-1.1,0,0,-1.1,-1.1,0)" style="fill:context-stroke;fill-rule:evenodd;stroke:context-stroke;stroke-width:.625;stroke-linejoin:round"/></marker><marker id="Arrow2Lend-74-5" orient="auto" refX="0" refY="0" style="overflow:visible"><path id="path1933-63-9" d="M 8.7185878,4.0337352 -2.2072895,0.01601326 8.7185884,-4.0017078 c -1.7454984,2.3720609 -1.7354408,5.6174519 -6e-7,8.035443 z" transform="matrix(-1.1,0,0,-1.1,-1.1,0)" style="fill:context-stroke;fill-rule:evenodd;stroke:context-stroke;stroke-width:.625;stroke-linejoin:round"/></marker><marker id="Arrow2Lend-04-4-6" orient="auto" refX="0" refY="0" style="overflow:visible"><path id="path1933-80-4-6" d="M 8.7185878,4.0337352 -2.2072895,0.01601326 8.7185884,-4.0017078 c -1.7454984,2.3720609 -1.7354408,5.6174519 -6e-7,8.035443 z" transform="matrix(-1.1,0,0,-1.1,-1.1,0)" style="fill:context-stroke;fill-rule:evenodd;stroke:context-stroke;stroke-width:.625;stroke-linejoin:round"/></marker><marker id="Arrow2Lend-79-5" orient="auto" refX="0" refY="0" style="overflow:visible"><path id="path1933-94-0" d="M 8.7185878,4.0337352 -2.2072895,0.01601326 8.7185884,-4.0017078 c -1.7454984,2.3720609 -1.7354408,5.6174519 -6e-7,8.035443 z" transform="matrix(-1.1,0,0,-1.1,-1.1,0)" style="fill:context-stroke;fill-rule:evenodd;stroke:context-stroke;stroke-width:.625;stroke-linejoin:round"/></marker><marker id="Arrow2Lend-04-40-6" orient="auto" refX="0" refY="0" style="overflow:visible"><path id="path1933-80-2-6" d="M 8.7185878,4.0337352 -2.2072895,0.01601326 8.7185884,-4.0017078 c -1.7454984,2.3720609 -1.7354408,5.6174519 -6e-7,8.035443 z" transform="matrix(-1.1,0,0,-1.1,-1.1,0)" style="fill:context-stroke;fill-rule:evenodd;stroke:context-stroke;stroke-width:.625;stroke-linejoin:round"/></marker><marker id="Arrow2Lend-79-5-7" orient="auto" refX="0" refY="0" style="overflow:visible"><path id="path1933-94-0-3" d="M 8.7185878,4.0337352 -2.2072895,0.01601326 8.7185884,-4.0017078 c -1.7454984,2.3720609 -1.7354408,5.6174519 -6e-7,8.035443 z" transform="matrix(-1.1,0,0,-1.1,-1.1,0)" style="fill:context-stroke;fill-rule:evenodd;stroke:context-stroke;stroke-width:.625;stroke-linejoin:round"/></marker><marker id="Arrow2Lend-04-40-6-2" orient="auto" refX="0" refY="0" style="overflow:visible"><path id="path1933-80-2-6-6" d="M 8.7185878,4.0337352 -2.2072895,0.01601326 8.7185884,-4.0017078 c -1.7454984,2.3720609 -1.7354408,5.6174519 -6e-7,8.035443 z" transform="matrix(-1.1,0,0,-1.1,-1.1,0)" style="fill:context-stroke;fill-rule:evenodd;stroke:context-stroke;stroke-width:.625;stroke-linejoin:round"/></marker><marker id="Arrow2Lend-6" orient="auto" refX="0" refY="0" style="overflow:visible"><path id="path1933-4" d="M 8.7185878,4.0337352 -2.2072895,0.01601326 8.7185884,-4.0017078 c -1.7454984,2.3720609 -1.7354408,5.6174519 -6e-7,8.035443 z" transform="matrix(-1.1,0,0,-1.1,-1.1,0)" style="fill:context-stroke;fill-rule:evenodd;stroke:context-stroke;stroke-width:.625;stroke-linejoin:round"/></marker><marker id="Arrow2Lend-93" orient="auto" refX="0" refY="0" style="overflow:visible"><path id="path1933-65" d="M 8.7185878,4.0337352 -2.2072895,0.01601326 8.7185884,-4.0017078 c -1.7454984,2.3720609 -1.7354408,5.6174519 -6e-7,8.035443 z" transform="matrix(-1.1,0,0,-1.1,-1.1,0)" style="fill:context-stroke;fill-rule:evenodd;stroke:context-stroke;stroke-width:.625;stroke-linejoin:round"/></marker><marker id="Arrow2Lend-93-9" orient="auto" refX="0" refY="0" style="overflow:visible"><path id="path1933-65-1" d="M 8.7185878,4.0337352 -2.2072895,0.01601326 8.7185884,-4.0017078 c -1.7454984,2.3720609 -1.7354408,5.6174519 -6e-7,8.035443 z" transform="matrix(-1.1,0,0,-1.1,-1.1,0)" style="fill:context-stroke;fill-rule:evenodd;stroke:context-stroke;stroke-width:.625;stroke-linejoin:round"/></marker><marker id="Arrow2Lend-93-3" orient="auto" refX="0" refY="0" style="overflow:visible"><path id="path1933-65-2" d="M 8.7185878,4.0337352 -2.2072895,0.01601326 8.7185884,-4.0017078 c -1.7454984,2.3720609 -1.7354408,5.6174519 -6e-7,8.035443 z" transform="matrix(-1.1,0,0,-1.1,-1.1,0)" style="fill:context-stroke;fill-rule:evenodd;stroke:context-stroke;stroke-width:.625;stroke-linejoin:round"/></marker><marker id="Arrow2Lend-93-3-0" orient="auto" refX="0" refY="0" style="overflow:visible"><path id="path1933-65-2-7" d="M 8.7185878,4.0337352 -2.2072895,0.01601326 8.7185884,-4.0017078 c -1.7454984,2.3720609 -1.7354408,5.6174519 -6e-7,8.035443 z" transform="matrix(-1.1,0,0,-1.1,-1.1,0)" style="fill:context-stroke;fill-rule:evenodd;stroke:context-stroke;stroke-width:.625;stroke-linejoin:round"/></marker><marker id="Arrow2Lend-93-3-9" orient="auto" refX="0" refY="0" style="overflow:visible"><path id="path1933-65-2-3" d="M 8.7185878,4.0337352 -2.2072895,0.01601326 8.7185884,-4.0017078 c -1.7454984,2.3720609 -1.7354408,5.6174519 -6e-7,8.035443 z" transform="matrix(-1.1,0,0,-1.1,-1.1,0)" style="fill:context-stroke;fill-rule:evenodd;stroke:context-stroke;stroke-width:.625;stroke-linejoin:round"/></marker><marker id="Arrow2Lend-98-4" orient="auto" refX="0" refY="0" style="overflow:visible"><path id="path1933-6-6" d="M 8.7185878,4.0337352 -2.2072895,0.01601326 8.7185884,-4.0017078 c -1.7454984,2.3720609 -1.7354408,5.6174519 -6e-7,8.035443 z" transform="matrix(-1.1,0,0,-1.1,-1.1,0)" style="fill:context-stroke;fill-rule:evenodd;stroke:context-stroke;stroke-width:.625;stroke-linejoin:round"/></marker><marker id="Arrow2Lend-8" orient="auto" refX="0" refY="0" style="overflow:visible"><path id="path1933-81" d="M 8.7185878,4.0337352 -2.2072895,0.01601326 8.7185884,-4.0017078 c -1.7454984,2.3720609 -1.7354408,5.6174519 -6e-7,8.035443 z" transform="matrix(-1.1,0,0,-1.1,-1.1,0)" style="fill:context-stroke;fill-rule:evenodd;stroke:context-stroke;stroke-width:.625;stroke-linejoin:round"/></marker><marker id="Arrow2Lend-04-9" orient="auto" refX="0" refY="0" style="overflow:visible"><path id="path1933-80-5" d="M 8.7185878,4.0337352 -2.2072895,0.01601326 8.7185884,-4.0017078 c -1.7454984,2.3720609 -1.7354408,5.6174519 -6e-7,8.035443 z" transform="matrix(-1.1,0,0,-1.1,-1.1,0)" style="fill:context-stroke;fill-rule:evenodd;stroke:context-stroke;stroke-width:.625;stroke-linejoin:round"/></marker><linearGradient id="linearGradient45993" x1="184.356" x2="216.36" y1="404.837" y2="404.837" gradientUnits="userSpaceOnUse" xlink:href="#linearGradient45989"/><marker id="Arrow2Lend-7-3" orient="auto" refX="0" refY="0" style="overflow:visible"><path id="path1933-8-1" d="M 8.7185878,4.0337352 -2.2072895,0.01601326 8.7185884,-4.0017078 c -1.7454984,2.3720609 -1.7354408,5.6174519 -6e-7,8.035443 z" transform="matrix(-1.1,0,0,-1.1,-1.1,0)" style="fill:context-stroke;fill-rule:evenodd;stroke:context-stroke;stroke-width:.625;stroke-linejoin:round"/></marker><rect id="rect31439-4" width="102.021" height="39.947" x="720" y="1010"/><marker id="Arrow2Lend-8-3" orient="auto" refX="0" refY="0" style="overflow:visible"><path id="path1933-81-3" d="M 8.7185878,4.0337352 -2.2072895,0.01601326 8.7185884,-4.0017078 c -1.7454984,2.3720609 -1.7354408,5.6174519 -6e-7,8.035443 z" transform="matrix(-1.1,0,0,-1.1,-1.1,0)" style="fill:context-stroke;fill-rule:evenodd;stroke:context-stroke;stroke-width:.625;stroke-linejoin:round"/></marker><rect id="rect53536-1" width="100" height="50" x="170" y="260"/></defs><g id="layer1"><rect id="rect57" width="101.55" height="51.733" x="19.16" y="16.095" style="fill:none;stroke-width:.264583"/><rect id="rect10214-3-7-1" width="42.333" height="10.583" x="39.688" y="132.292" style="fill:none;fill-opacity:1;stroke:#000;stroke-width:.252801;stroke-miterlimit:4;stroke-dasharray:none;stroke-opacity:1"/><rect id="rect10214-3-7-1-0" width="42.333" height="10.583" x="39.688" y="116.416" style="fill:none;fill-opacity:1;stroke:#000;stroke-width:.252801;stroke-miterlimit:4;stroke-dasharray:none;stroke-opacity:1"/><rect id="rect10214-3-7-1-0-1" width="42.333" height="10.583" x="39.688" y="100.541" style="fill:none;fill-opacity:1;stroke:#000;stroke-width:.252801;stroke-miterlimit:4;stroke-dasharray:none;stroke-opacity:1"/><rect id="rect10214-3-7-1-7" width="42.333" height="10.583" x="92.604" y="206.375" style="fill:none;fill-opacity:1;stroke:#000;stroke-width:.252801;stroke-miterlimit:4;stroke-dasharray:none;stroke-opacity:1"/><rect id="rect10214-3-7-1-7-6" width="42.333" height="10.583" x="71.437" y="259.291" style="fill:none;fill-opacity:1;stroke:#000;stroke-width:.252801;stroke-miterlimit:4;stroke-dasharray:none;stroke-opacity:1"/><rect id="rect10214-3-7-1-7-2" width="42.333" height="10.583" x="39.688" y="179.917" style="fill:none;fill-opacity:1;stroke:#000;stroke-width:.252801;stroke-miterlimit:4;stroke-dasharray:none;stroke-opacity:1"/><rect id="rect10214-3-7-1-0-2" width="42.333" height="10.583" x="39.688" y="164.042" style="fill:none;fill-opacity:1;stroke:#000;stroke-width:.252801;stroke-miterlimit:4;stroke-dasharray:none;stroke-opacity:1"/><rect id="rect10214-3-7-1-0-1-7" width="42.333" height="10.583" x="39.688" y="148.167" style="fill:none;fill-opacity:1;stroke:#000;stroke-width:.252801;stroke-miterlimit:4;stroke-dasharray:none;stroke-opacity:1"/><rect id="rect10214-3-7-1-0-1-0" width="42.333" height="10.583" x="39.688" y="84.666" style="fill:none;fill-opacity:1;stroke:#000;stroke-width:.253;stroke-miterlimit:4;stroke-dasharray:none;stroke-opacity:1"/><path id="path12604" d="m 76.729174,251.35391 h 31.749986 l 18.52083,-26.45833 h -26.45833 l -7.937496,10.58333 -7.93749,-10.58333 h -26.45834 z" style="fill:red;stroke:#000;stroke-width:.224853px;stroke-linecap:butt;stroke-linejoin:miter;stroke-opacity:1;fill-opacity:.39676112"/><path id="path403" d="m 92.604164,269.87475 v 5.29166 H 39.687499 v -58.20833 h 34.395835 v 7.9375" style="fill:none;stroke:#000;stroke-width:.264583px;stroke-linecap:butt;stroke-linejoin:miter;stroke-opacity:1;marker-end:url(#Arrow2Lend)"/><path id="path405" d="m 92.604164,250.82474 v 7.9375" style="fill:none;stroke:#000;stroke-width:.264583px;stroke-linecap:butt;stroke-linejoin:miter;stroke-opacity:1;marker-end:url(#Arrow2Lend-0)"/><path id="path407" d="m 113.77082,216.95808 v 7.9375" style="fill:none;stroke:#000;stroke-width:.264583px;stroke-linecap:butt;stroke-linejoin:miter;stroke-opacity:1;marker-end:url(#Arrow2Lend-98)"/><path id="path459" d="M 7.9374976,291.04141 H 153.45833 l 0,-224.895577 h -5.29167 l 0.27371,219.603917 H 12.955459 L 13.229166,66.145833 H 7.9374999 Z" style="fill:#3cff00;fill-opacity:.5;stroke:#000;stroke-width:.257649px;stroke-linecap:butt;stroke-linejoin:miter;stroke-opacity:1"/><path id="path655" d="m 510,320 -45,25.98076 -45,25.98076 0,-51.96152 0,-51.96152 45,25.98076 z" transform="matrix(0.11759261,0,0,0.10183819,64.381934,57.369905)" style="fill:none;fill-rule:evenodd;stroke:#000;stroke-width:2.31193;stroke-miterlimit:4;stroke-dasharray:none;stroke-opacity:1"/><path id="path1900" d="M 82.020834,89.958125 H 113.77083" style="fill:none;stroke:#000;stroke-width:.222294px;stroke-linecap:butt;stroke-linejoin:miter;stroke-opacity:1;marker-end:url(#Arrow2Lend)"/><path id="path1900-5" d="m 124.35417,89.958126 h 23.81249" style="fill:none;stroke:#000;stroke-width:.192512px;stroke-linecap:butt;stroke-linejoin:miter;stroke-opacity:1;marker-end:url(#Arrow2Lend-04)"/><rect id="rect10214-3-7-1-0-1-0-5" width="42.333" height="10.583" x="39.688" y="68.792" style="fill:none;fill-opacity:1;stroke:#000;stroke-width:.253;stroke-miterlimit:4;stroke-dasharray:none;stroke-opacity:1"/><rect id="rect10214-3-7-1-0-1-0-5-4" width="66.146" height="26.458" x="7.937" y="7.408" style="fill:none;fill-opacity:1;stroke:#000;stroke-width:.500035;stroke-miterlimit:4;stroke-dasharray:none;stroke-opacity:1"/><rect id="rect10214-3-7-1-0-1-0-5-4-7" width="66.146" height="26.458" x="82.021" y="7.408" style="fill:none;fill-opacity:1;stroke:#000;stroke-width:.500035;stroke-miterlimit:4;stroke-dasharray:none;stroke-opacity:1"/><path id="path655-0" d="m 510,320 -45,25.98076 -45,25.98076 0,-51.96152 0,-51.96152 45,25.98076 z" transform="matrix(0.11759261,0,0,0.10183819,64.381936,41.495112)" style="fill:none;fill-rule:evenodd;stroke:#000;stroke-width:2.31193;stroke-miterlimit:4;stroke-dasharray:none;stroke-opacity:1"/><path id="path1900-6" d="M 82.020836,74.083332 H 113.77083" style="fill:none;stroke:#000;stroke-width:.222294px;stroke-linecap:butt;stroke-linejoin:miter;stroke-opacity:1;marker-end:url(#Arrow2Lend-8)"/><path id="path1900-5-7" d="m 124.35417,74.083333 h 23.81249" style="fill:none;stroke:#000;stroke-width:.192512px;stroke-linecap:butt;stroke-linejoin:miter;stroke-opacity:1;marker-end:url(#Arrow2Lend-04-9)"/><path id="path655-6" d="m 510,320 -45,25.98076 -45,25.98076 0,-51.96152 0,-51.96152 45,25.98076 z" transform="matrix(0.11759261,0,0,0.10183819,64.381934,73.244905)" style="fill:none;fill-rule:evenodd;stroke:#000;stroke-width:2.31193;stroke-miterlimit:4;stroke-dasharray:none;stroke-opacity:1"/><path id="path1900-4" d="M 82.020834,105.83308 H 113.77083" style="fill:none;stroke:#000;stroke-width:.222294px;stroke-linecap:butt;stroke-linejoin:miter;stroke-opacity:1;marker-end:url(#Arrow2Lend-74)"/><path id="path1900-5-8" d="m 124.35417,105.83308 h 23.81249" style="fill:none;stroke:#000;stroke-width:.192512px;stroke-linecap:butt;stroke-linejoin:miter;stroke-opacity:1;marker-end:url(#Arrow2Lend-04-4)"/><path id="path655-9" d="m 510,320 -45,25.98076 -45,25.98076 0,-51.96152 0,-51.96152 45,25.98076 z" transform="matrix(0.11759261,0,0,0.10183819,64.381934,89.119907)" style="fill:none;fill-rule:evenodd;stroke:#000;stroke-width:2.31193;stroke-miterlimit:4;stroke-dasharray:none;stroke-opacity:1"/><path id="path1900-51" d="M 82.020834,121.70808 H 113.77083" style="fill:none;stroke:#000;stroke-width:.222294px;stroke-linecap:butt;stroke-linejoin:miter;stroke-opacity:1;marker-end:url(#Arrow2Lend-79)"/><path id="path1900-5-85" d="m 124.35417,121.70808 h 23.81249" style="fill:none;stroke:#000;stroke-width:.192512px;stroke-linecap:butt;stroke-linejoin:miter;stroke-opacity:1;marker-end:url(#Arrow2Lend-04-40)"/><path id="path655-95" d="m 510,320 -45,25.98076 -45,25.98076 0,-51.96152 0,-51.96152 45,25.98076 z" transform="matrix(0.11759261,0,0,0.10183819,64.381934,104.99486)" style="fill:none;fill-rule:evenodd;stroke:#000;stroke-width:2.31193;stroke-miterlimit:4;stroke-dasharray:none;stroke-opacity:1"/><path id="path1900-8" d="M 82.020834,137.58308 H 113.77083" style="fill:none;stroke:#000;stroke-width:.222294px;stroke-linecap:butt;stroke-linejoin:miter;stroke-opacity:1;marker-end:url(#Arrow2Lend-5)"/><path id="path1900-5-0" d="m 124.35417,137.58308 h 23.81249" style="fill:none;stroke:#000;stroke-width:.192512px;stroke-linecap:butt;stroke-linejoin:miter;stroke-opacity:1;marker-end:url(#Arrow2Lend-04-7)"/><path id="path655-6-1" d="m 510,320 -45,25.98076 -45,25.98076 0,-51.96152 0,-51.96152 45,25.98076 z" transform="matrix(0.11759261,0,0,0.10183819,64.381934,120.86986)" style="fill:none;fill-rule:evenodd;stroke:#000;stroke-width:2.31193;stroke-miterlimit:4;stroke-dasharray:none;stroke-opacity:1"/><path id="path1900-4-3" d="M 82.020834,153.45808 H 113.77083" style="fill:none;stroke:#000;stroke-width:.222294px;stroke-linecap:butt;stroke-linejoin:miter;stroke-opacity:1;marker-end:url(#Arrow2Lend-74-5)"/><path id="path1900-5-8-6" d="m 124.35417,153.45808 h 23.81249" style="fill:none;stroke:#000;stroke-width:.192512px;stroke-linecap:butt;stroke-linejoin:miter;stroke-opacity:1;marker-end:url(#Arrow2Lend-04-4-6)"/><path id="path655-9-5" d="m 510,320 -45,25.98076 -45,25.98076 0,-51.96152 0,-51.96152 45,25.98076 z" transform="matrix(0.11759261,0,0,0.10183819,64.381934,136.74486)" style="fill:none;fill-rule:evenodd;stroke:#000;stroke-width:2.31193;stroke-miterlimit:4;stroke-dasharray:none;stroke-opacity:1"/><path id="path1900-51-8" d="M 82.020834,169.33308 H 113.77083" style="fill:none;stroke:#000;stroke-width:.222294px;stroke-linecap:butt;stroke-linejoin:miter;stroke-opacity:1;marker-end:url(#Arrow2Lend-79-5)"/><path id="path1900-5-85-1" d="m 124.35417,169.33308 h 23.81249" style="fill:none;stroke:#000;stroke-width:.192512px;stroke-linecap:butt;stroke-linejoin:miter;stroke-opacity:1;marker-end:url(#Arrow2Lend-04-40-6)"/><path id="path655-9-5-1" d="m 510,320 -45,25.98076 -45,25.98076 0,-51.96152 0,-51.96152 45,25.98076 z" transform="matrix(0.11759261,0,0,0.10183819,64.381934,152.61986)" style="fill:none;fill-rule:evenodd;stroke:#000;stroke-width:2.31193;stroke-miterlimit:4;stroke-dasharray:none;stroke-opacity:1"/><path id="path1900-51-8-4" d="M 82.020834,185.20808 H 113.77083" style="fill:none;stroke:#000;stroke-width:.222294px;stroke-linecap:butt;stroke-linejoin:miter;stroke-opacity:1;marker-end:url(#Arrow2Lend-79-5-7)"/><path id="path1900-5-85-1-3" d="m 124.35417,185.20808 h 23.81249" style="fill:none;stroke:#000;stroke-width:.192512px;stroke-linecap:butt;stroke-linejoin:miter;stroke-opacity:1;marker-end:url(#Arrow2Lend-04-40-6-2)"/><path id="path3318" d="M 13.229166,89.958125 H 39.687499" style="fill:none;stroke:#000;stroke-width:.232055px;stroke-linecap:butt;stroke-linejoin:miter;stroke-opacity:1;marker-end:url(#Arrow2Lend)"/><path id="path3318-5" d="M 13.229166,121.70808 H 39.687499" style="fill:none;stroke:#000;stroke-width:.232055px;stroke-linecap:butt;stroke-linejoin:miter;stroke-opacity:1;marker-end:url(#Arrow2Lend-93)"/><path id="path3318-5-8" d="M 13.229166,137.58308 H 39.687499" style="fill:none;stroke:#000;stroke-width:.232055px;stroke-linecap:butt;stroke-linejoin:miter;stroke-opacity:1;marker-end:url(#Arrow2Lend-93-9)"/><path id="path3318-4" d="M 13.229166,105.83308 H 39.687499" style="fill:none;stroke:#000;stroke-width:.232055px;stroke-linecap:butt;stroke-linejoin:miter;stroke-opacity:1;marker-end:url(#Arrow2Lend-6)"/><path id="path3318-5-9" d="M 13.229166,153.45808 H 39.687499" style="fill:none;stroke:#000;stroke-width:.232055px;stroke-linecap:butt;stroke-linejoin:miter;stroke-opacity:1;marker-end:url(#Arrow2Lend-93-3)"/><path id="path3318-5-9-8" d="M 13.229166,169.33308 H 39.687499" style="fill:none;stroke:#000;stroke-width:.232055px;stroke-linecap:butt;stroke-linejoin:miter;stroke-opacity:1;marker-end:url(#Arrow2Lend-93-3-0)"/><path id="path3318-5-9-0" d="M 13.229166,185.20808 H 39.687499" style="fill:none;stroke:#000;stroke-width:.232055px;stroke-linecap:butt;stroke-linejoin:miter;stroke-opacity:1;marker-end:url(#Arrow2Lend-93-3-9)"/><g id="g492" transform="matrix(0.92682927,0,0,1,-3.9364854,-2.0314062e-4)"><path id="path407-9" d="m 127,198.4375 v 7.9375" style="fill:none;stroke:#000;stroke-width:.264583px;stroke-linecap:butt;stroke-linejoin:miter;stroke-opacity:1;marker-end:url(#Arrow2Lend-98-4)"/><path id="path292" d="M 18.520833,198.43749 H 127 v 0" style="fill:none;stroke:#000;stroke-width:.264583px;stroke-linecap:butt;stroke-linejoin:miter;stroke-opacity:1"/></g><rect id="rect1618" width="42.333" height="15.875" x="166.688" y="230.188" ry="0" style="fill:#ff0;fill-rule:evenodd;stroke:#000;stroke-width:.26354;stroke-miterlimit:4;stroke-dasharray:none;stroke-opacity:1;fill-opacity:.5"/><path id="path3114" d="m 118.00417,238.12501 48.68333,-1e-5" style="fill:none;stroke:#000;stroke-width:.251278px;stroke-linecap:butt;stroke-linejoin:miter;stroke-opacity:1;marker-end:url(#Arrow2Lend-9)"/><path id="path4615" d="m 171.97916,246.06249 v 34.39584 H 34.395833 v -42.33334 h 31.749999 v 0" style="fill:none;stroke:#000;stroke-width:.264583px;stroke-linecap:butt;stroke-linejoin:miter;stroke-opacity:1;marker-end:url(#Arrow2Lend-9)"/><path id="path5065" d="M 13.229166,264.58333 H 71.437499" style="fill:none;stroke:#000;stroke-width:.264583px;stroke-linecap:butt;stroke-linejoin:miter;stroke-opacity:1;marker-end:url(#Arrow2Lend-2)"/><text style="font-size:15.9518px;line-height:1.25;font-family:sans-serif;text-align:center;letter-spacing:0;white-space:pre;shape-inside:url(#rect8082)" id="text8080" x="10.641" y="0" transform="matrix(0.44230518,0,0,0.44230518,-55.475057,-177.17127)" xml:space="preserve"><tspan id="tspan55179" x="323.979" y="1004.553">AC</tspan></text><text style="font-size:26.6667px;line-height:1.25;font-family:sans-serif;letter-spacing:0;white-space:pre;shape-inside:url(#rect21842)" id="text21840" transform="matrix(0.26458333,0,0,0.26458333,11.687483,-1.226306)" xml:space="preserve"><tspan id="tspan55181" x="170" y="714.329">IR</tspan></text><text style="font-size:26.6667px;line-height:1.25;font-family:sans-serif;letter-spacing:0;white-space:pre;shape-inside:url(#rect28104)" id="text28102" transform="matrix(0.26458333,0,0,0.26458333,11.210337,1.428146)" xml:space="preserve"><tspan id="tspan55183" x="170" y="644.329">R1</tspan></text><text style="font-size:26.6667px;line-height:1.25;font-family:sans-serif;letter-spacing:0;white-space:pre;shape-inside:url(#rect29760)" id="text29758" transform="matrix(0.26458333,0,0,0.26458333,11.06392,-1.1729031)" xml:space="preserve"><tspan id="tspan55185" x="170" y="594.329">R2</tspan></text><text style="font-size:26.6667px;line-height:1.25;font-family:sans-serif;letter-spacing:0;white-space:pre;shape-inside:url(#rect32868)" id="text32866" transform="matrix(0.26458333,0,0,0.26458333,11.100093,-1.2262995)" xml:space="preserve"><tspan id="tspan55187" x="170" y="534.329">R3</tspan></text><text style="font-size:26.6667px;line-height:1.25;font-family:sans-serif;letter-spacing:0;white-space:pre;shape-inside:url(#rect38550)" id="text38548" transform="matrix(0.26458333,0,0,0.26458333,11.005353,1.4193672)" xml:space="preserve"><tspan id="tspan55189" x="170" y="464.329">R4</tspan></text><text style="font-size:26.6667px;line-height:1.25;font-family:sans-serif;letter-spacing:0;white-space:pre;shape-inside:url(#rect48945)" id="text48943" transform="matrix(0.26458333,0,0,0.26458333,13.730424,1.3659493)" xml:space="preserve"><tspan id="tspan55191" x="160" y="404.329">R5</tspan></text><text style="font-size:26.6667px;line-height:1.25;font-family:sans-serif;letter-spacing:0;white-space:pre;shape-inside:url(#rect50836)" id="text50834" transform="matrix(0.26458333,0,0,0.26458333,8.4318671,1.4193444)" xml:space="preserve"><tspan id="tspan55193" x="180" y="344.329">PC</tspan></text><text style="font-size:26.6667px;line-height:1.25;font-family:sans-serif;letter-spacing:0;white-space:pre;shape-inside:url(#rect53536)" id="text53534" transform="matrix(0.26458333,0,0,0.26458333,10.345617,1.4195502)" xml:space="preserve"><tspan id="tspan55195" x="170" y="284.329">DR</tspan></text><g id="g70888" transform="translate(-39.561,-68.66518)"><rect id="rect10214-3-7-1-0-1-0-5-1" width="42.333" height="10.583" x="39.688" y="68.792" style="fill:none;fill-opacity:1;stroke:#000;stroke-width:.253;stroke-miterlimit:4;stroke-dasharray:none;stroke-opacity:1"/><path id="path1900-6-4" d="M 82.020836,74.083332 H 113.77083" style="fill:none;stroke:#000;stroke-width:.222294px;stroke-linecap:butt;stroke-linejoin:miter;stroke-opacity:1;marker-end:url(#Arrow2Lend-8-3)"/><text style="font-size:26.6667px;line-height:1.25;font-family:sans-serif;letter-spacing:0;white-space:pre;shape-inside:url(#rect53536-1)" id="text53534-3" transform="matrix(0.26458333,0,0,0.26458333,10.345617,1.4195502)" xml:space="preserve"><tspan id="tspan70905" x="170" y="284.329">DR</tspan></text></g><path id="path1672" d="m 134.9375,185.20833 v 13.22916 l 52.91666,1e-5 0,31.22083" style="fill:none;stroke:#000;stroke-width:.264583px;stroke-linecap:butt;stroke-linejoin:miter;stroke-opacity:1;marker-end:url(#Arrow2Lend-7)"/><text style="font-style:normal;font-weight:400;font-size:26.6667px;line-height:1.25;font-family:sans-serif;white-space:pre;shape-inside:url(#rect4329);fill:#000;fill-opacity:1;stroke:none" id="text4327" transform="matrix(0.26458333,0,0,0.26458333,3.1574158,1.4815515)" xml:space="preserve">Control</text><path id="path12316" d="m 182.5625,246.06249 0,18.52084" style="fill:none;stroke:#000;stroke-width:.264583px;stroke-linecap:butt;stroke-linejoin:miter;stroke-opacity:1;marker-end:url(#Arrow2Lend-7)"/><path id="path12316-1" d="m 190.5,246.0625 0,18.52083" style="fill:none;stroke:#000;stroke-width:.264583px;stroke-linecap:butt;stroke-linejoin:miter;stroke-opacity:1;marker-end:url(#Arrow2Lend-7-3)"/><path id="path12320" d="m 198.4375,246.0625 0,18.52083" style="fill:none;stroke:#000;stroke-width:.264583px;stroke-linecap:butt;stroke-linejoin:miter;stroke-opacity:1;marker-end:url(#Arrow2Lend-9)"/><text style="font-style:normal;font-weight:400;font-size:16px;line-height:1.25;font-family:sans-serif;white-space:pre;shape-inside:url(#rect17624);fill:#000;fill-opacity:1;stroke:none" id="text17622" transform="matrix(-0.00155475,0.26457876,-0.26457876,-0.00155475,471.63709,107.03836)" xml:space="preserve">increment</text><text style="font-style:normal;font-weight:400;font-size:16px;line-height:1.25;font-family:sans-serif;white-space:pre;shape-inside:url(#rect31439);fill:#000;fill-opacity:1;stroke:none" id="text31437" transform="matrix(0,0.26458333,-0.26458333,0,460.17567,76.42802)" xml:space="preserve"><tspan style="font-size:16px" id="tspan31441">write_enable</tspan></text><text style="font-style:normal;font-weight:400;font-size:16px;line-height:1.25;font-family:sans-serif;white-space:pre;shape-inside:url(#rect31439-4);fill:#000;fill-opacity:1;stroke:none" id="text31437-5" transform="matrix(0,0.26458333,-0.26458333,0,468.29848,76.194415)" xml:space="preserve"><tspan id="tspan33597" x="720" y="1024.597">read_enable</tspan></text><text style="font-style:normal;font-weight:400;font-size:26.6667px;line-height:1.25;font-family:sans-serif;white-space:pre;shape-inside:url(#rect48818);fill:#000;fill-opacity:1;stroke:none" id="text48816" transform="matrix(0.26458333,0,0,0.26458333,6.5336113,3.2135846)" xml:space="preserve">ALU</text><text style="font-size:26.6667px;line-height:1.25;font-family:sans-serif;text-align:center;letter-spacing:0;text-anchor:middle;white-space:pre;shape-inside:url(#rect56297)" id="text56295" x="52.122" y="0" transform="matrix(0.26458333,0,0,0.26458333,-4.2081954,-4.2290443)" xml:space="preserve">Data Memory</text><text style="font-size:26.6667px;line-height:1.25;font-family:sans-serif;text-align:center;letter-spacing:0;text-anchor:middle;white-space:pre;shape-inside:url(#rect60571)" id="text60569" x="71.875" y="0" transform="matrix(0.26458333,0,0,0.26458333,-5.5276664,-4.2118193)" xml:space="preserve">Instruction Memory</text></g></svg>