<svg xmlns="http://www.w3.org/2000/svg" xmlns:svg="http://www.w3.org/2000/svg" id="svg5" width="210mm" height="297mm" version="1.1" viewBox="0 0 210 297"><defs id="defs2"><marker style="overflow:visible" id="Arrow2Lend" orient="auto" refX="0" refY="0"><path style="stroke:context-stroke;fill-rule:evenodd;fill:context-stroke;stroke-width:.625;stroke-linejoin:round" id="path1933" d="M 8.7185878,4.0337352 L -2.2072895,0.016013256 L 8.7185884,-4.0017078 C 6.9730900,-1.6296469 6.9831476,1.6157441 8.7185878,4.0337352 z" transform="scale(1.1) rotate(180) translate(1,0)"/></marker><linearGradient id="linearGradient1236"><stop style="stop-color:#000;stop-opacity:1" id="stop1234" offset="0"/></linearGradient><marker style="overflow:visible" id="Arrow2Lend-9" orient="auto" refX="0" refY="0"><path style="fill:context-stroke;fill-rule:evenodd;stroke:context-stroke;stroke-width:.625;stroke-linejoin:round" id="path1933-0" d="M 8.7185878,4.0337352 -2.2072895,0.01601326 8.7185884,-4.0017078 c -1.7454984,2.3720609 -1.7354408,5.6174519 -6e-7,8.035443 z" transform="matrix(-1.1,0,0,-1.1,-1.1,0)"/></marker><marker style="overflow:visible" id="Arrow2Lend-7" orient="auto" refX="0" refY="0"><path style="fill:context-stroke;fill-rule:evenodd;stroke:context-stroke;stroke-width:.625;stroke-linejoin:round" id="path1933-8" d="M 8.7185878,4.0337352 -2.2072895,0.01601326 8.7185884,-4.0017078 c -1.7454984,2.3720609 -1.7354408,5.6174519 -6e-7,8.035443 z" transform="matrix(-1.1,0,0,-1.1,-1.1,0)"/></marker><marker style="overflow:visible" id="Arrow2Lend-2" orient="auto" refX="0" refY="0"><path style="fill:context-stroke;fill-rule:evenodd;stroke:context-stroke;stroke-width:.625;stroke-linejoin:round" id="path1933-86" d="M 8.7185878,4.0337352 -2.2072895,0.01601326 8.7185884,-4.0017078 c -1.7454984,2.3720609 -1.7354408,5.6174519 -6e-7,8.035443 z" transform="matrix(-1.1,0,0,-1.1,-1.1,0)"/></marker><marker style="overflow:visible" id="Arrow2Lend-0" orient="auto" refX="0" refY="0"><path style="fill:context-stroke;fill-rule:evenodd;stroke:context-stroke;stroke-width:.625;stroke-linejoin:round" id="path1933-3" d="M 8.7185878,4.0337352 -2.2072895,0.01601326 8.7185884,-4.0017078 c -1.7454984,2.3720609 -1.7354408,5.6174519 -6e-7,8.035443 z" transform="matrix(-1.1,0,0,-1.1,-1.1,0)"/></marker><marker style="overflow:visible" id="Arrow2Lend-98" orient="auto" refX="0" refY="0"><path style="fill:context-stroke;fill-rule:evenodd;stroke:context-stroke;stroke-width:.625;stroke-linejoin:round" id="path1933-6" d="M 8.7185878,4.0337352 -2.2072895,0.01601326 8.7185884,-4.0017078 c -1.7454984,2.3720609 -1.7354408,5.6174519 -6e-7,8.035443 z" transform="matrix(-1.1,0,0,-1.1,-1.1,0)"/></marker><marker style="overflow:visible" id="Arrow2Lend-98-8" orient="auto" refX="0" refY="0"><path style="fill:context-stroke;fill-rule:evenodd;stroke:context-stroke;stroke-width:.625;stroke-linejoin:round" id="path1933-6-2" d="M 8.7185878,4.0337352 -2.2072895,0.01601326 8.7185884,-4.0017078 c -1.7454984,2.3720609 -1.7354408,5.6174519 -6e-7,8.035443 z" transform="matrix(-1.1,0,0,-1.1,-1.1,0)"/></marker><marker style="overflow:visible" id="Arrow2Lend-98-8-3" orient="auto" refX="0" refY="0"><path style="fill:context-stroke;fill-rule:evenodd;stroke:context-stroke;stroke-width:.625;stroke-linejoin:round" id="path1933-6-2-1" d="M 8.7185878,4.0337352 -2.2072895,0.01601326 8.7185884,-4.0017078 c -1.7454984,2.3720609 -1.7354408,5.6174519 -6e-7,8.035443 z" transform="matrix(-1.1,0,0,-1.1,-1.1,0)"/></marker><marker style="overflow:visible" id="Arrow2Lend-98-8-3-6" orient="auto" refX="0" refY="0"><path style="fill:context-stroke;fill-rule:evenodd;stroke:context-stroke;stroke-width:.625;stroke-linejoin:round" id="path1933-6-2-1-7" d="M 8.7185878,4.0337352 -2.2072895,0.01601326 8.7185884,-4.0017078 c -1.7454984,2.3720609 -1.7354408,5.6174519 -6e-7,8.035443 z" transform="matrix(-1.1,0,0,-1.1,-1.1,0)"/></marker><marker style="overflow:visible" id="Arrow2Lend-98-8-3-6-6" orient="auto" refX="0" refY="0"><path style="fill:context-stroke;fill-rule:evenodd;stroke:context-stroke;stroke-width:.625;stroke-linejoin:round" id="path1933-6-2-1-7-5" d="M 8.7185878,4.0337352 -2.2072895,0.01601326 8.7185884,-4.0017078 c -1.7454984,2.3720609 -1.7354408,5.6174519 -6e-7,8.035443 z" transform="matrix(-1.1,0,0,-1.1,-1.1,0)"/></marker><marker style="overflow:visible" id="Arrow2Lend-98-8-3-6-6-9" orient="auto" refX="0" refY="0"><path style="fill:context-stroke;fill-rule:evenodd;stroke:context-stroke;stroke-width:.625;stroke-linejoin:round" id="path1933-6-2-1-7-5-3" d="M 8.7185878,4.0337352 -2.2072895,0.01601326 8.7185884,-4.0017078 c -1.7454984,2.3720609 -1.7354408,5.6174519 -6e-7,8.035443 z" transform="matrix(-1.1,0,0,-1.1,-1.1,0)"/></marker><marker style="overflow:visible" id="Arrow2Lend-76" orient="auto" refX="0" refY="0"><path style="fill:context-stroke;fill-rule:evenodd;stroke:context-stroke;stroke-width:.625;stroke-linejoin:round" id="path1933-9" d="M 8.7185878,4.0337352 -2.2072895,0.01601326 8.7185884,-4.0017078 c -1.7454984,2.3720609 -1.7354408,5.6174519 -6e-7,8.035443 z" transform="matrix(-1.1,0,0,-1.1,-1.1,0)"/></marker><marker style="overflow:visible" id="Arrow2Lend-04" orient="auto" refX="0" refY="0"><path style="fill:context-stroke;fill-rule:evenodd;stroke:context-stroke;stroke-width:.625;stroke-linejoin:round" id="path1933-80" d="M 8.7185878,4.0337352 -2.2072895,0.01601326 8.7185884,-4.0017078 c -1.7454984,2.3720609 -1.7354408,5.6174519 -6e-7,8.035443 z" transform="matrix(-1.1,0,0,-1.1,-1.1,0)"/></marker><marker style="overflow:visible" id="Arrow2Lend-74" orient="auto" refX="0" refY="0"><path style="fill:context-stroke;fill-rule:evenodd;stroke:context-stroke;stroke-width:.625;stroke-linejoin:round" id="path1933-63" d="M 8.7185878,4.0337352 -2.2072895,0.01601326 8.7185884,-4.0017078 c -1.7454984,2.3720609 -1.7354408,5.6174519 -6e-7,8.035443 z" transform="matrix(-1.1,0,0,-1.1,-1.1,0)"/></marker><marker style="overflow:visible" id="Arrow2Lend-04-4" orient="auto" refX="0" refY="0"><path style="fill:context-stroke;fill-rule:evenodd;stroke:context-stroke;stroke-width:.625;stroke-linejoin:round" id="path1933-80-4" d="M 8.7185878,4.0337352 -2.2072895,0.01601326 8.7185884,-4.0017078 c -1.7454984,2.3720609 -1.7354408,5.6174519 -6e-7,8.035443 z" transform="matrix(-1.1,0,0,-1.1,-1.1,0)"/></marker><marker style="overflow:visible" id="Arrow2Lend-79" orient="auto" refX="0" refY="0"><path style="fill:context-stroke;fill-rule:evenodd;stroke:context-stroke;stroke-width:.625;stroke-linejoin:round" id="path1933-94" d="M 8.7185878,4.0337352 -2.2072895,0.01601326 8.7185884,-4.0017078 c -1.7454984,2.3720609 -1.7354408,5.6174519 -6e-7,8.035443 z" transform="matrix(-1.1,0,0,-1.1,-1.1,0)"/></marker><marker style="overflow:visible" id="Arrow2Lend-04-40" orient="auto" refX="0" refY="0"><path style="fill:context-stroke;fill-rule:evenodd;stroke:context-stroke;stroke-width:.625;stroke-linejoin:round" id="path1933-80-2" d="M 8.7185878,4.0337352 -2.2072895,0.01601326 8.7185884,-4.0017078 c -1.7454984,2.3720609 -1.7354408,5.6174519 -6e-7,8.035443 z" transform="matrix(-1.1,0,0,-1.1,-1.1,0)"/></marker><marker style="overflow:visible" id="Arrow2Lend-5" orient="auto" refX="0" refY="0"><path style="fill:context-stroke;fill-rule:evenodd;stroke:context-stroke;stroke-width:.625;stroke-linejoin:round" id="path1933-30" d="M 8.7185878,4.0337352 -2.2072895,0.01601326 8.7185884,-4.0017078 c -1.7454984,2.3720609 -1.7354408,5.6174519 -6e-7,8.035443 z" transform="matrix(-1.1,0,0,-1.1,-1.1,0)"/></marker><marker style="overflow:visible" id="Arrow2Lend-04-7" orient="auto" refX="0" refY="0"><path style="fill:context-stroke;fill-rule:evenodd;stroke:context-stroke;stroke-width:.625;stroke-linejoin:round" id="path1933-80-0" d="M 8.7185878,4.0337352 -2.2072895,0.01601326 8.7185884,-4.0017078 c -1.7454984,2.3720609 -1.7354408,5.6174519 -6e-7,8.035443 z" transform="matrix(-1.1,0,0,-1.1,-1.1,0)"/></marker><marker style="overflow:visible" id="Arrow2Lend-74-5" orient="auto" refX="0" refY="0"><path style="fill:context-stroke;fill-rule:evenodd;stroke:context-stroke;stroke-width:.625;stroke-linejoin:round" id="path1933-63-9" d="M 8.7185878,4.0337352 -2.2072895,0.01601326 8.7185884,-4.0017078 c -1.7454984,2.3720609 -1.7354408,5.6174519 -6e-7,8.035443 z" transform="matrix(-1.1,0,0,-1.1,-1.1,0)"/></marker><marker style="overflow:visible" id="Arrow2Lend-04-4-6" orient="auto" refX="0" refY="0"><path style="fill:context-stroke;fill-rule:evenodd;stroke:context-stroke;stroke-width:.625;stroke-linejoin:round" id="path1933-80-4-6" d="M 8.7185878,4.0337352 -2.2072895,0.01601326 8.7185884,-4.0017078 c -1.7454984,2.3720609 -1.7354408,5.6174519 -6e-7,8.035443 z" transform="matrix(-1.1,0,0,-1.1,-1.1,0)"/></marker><marker style="overflow:visible" id="Arrow2Lend-79-5" orient="auto" refX="0" refY="0"><path style="fill:context-stroke;fill-rule:evenodd;stroke:context-stroke;stroke-width:.625;stroke-linejoin:round" id="path1933-94-0" d="M 8.7185878,4.0337352 -2.2072895,0.01601326 8.7185884,-4.0017078 c -1.7454984,2.3720609 -1.7354408,5.6174519 -6e-7,8.035443 z" transform="matrix(-1.1,0,0,-1.1,-1.1,0)"/></marker><marker style="overflow:visible" id="Arrow2Lend-04-40-6" orient="auto" refX="0" refY="0"><path style="fill:context-stroke;fill-rule:evenodd;stroke:context-stroke;stroke-width:.625;stroke-linejoin:round" id="path1933-80-2-6" d="M 8.7185878,4.0337352 -2.2072895,0.01601326 8.7185884,-4.0017078 c -1.7454984,2.3720609 -1.7354408,5.6174519 -6e-7,8.035443 z" transform="matrix(-1.1,0,0,-1.1,-1.1,0)"/></marker><marker style="overflow:visible" id="Arrow2Lend-79-5-7" orient="auto" refX="0" refY="0"><path style="fill:context-stroke;fill-rule:evenodd;stroke:context-stroke;stroke-width:.625;stroke-linejoin:round" id="path1933-94-0-3" d="M 8.7185878,4.0337352 -2.2072895,0.01601326 8.7185884,-4.0017078 c -1.7454984,2.3720609 -1.7354408,5.6174519 -6e-7,8.035443 z" transform="matrix(-1.1,0,0,-1.1,-1.1,0)"/></marker><marker style="overflow:visible" id="Arrow2Lend-04-40-6-2" orient="auto" refX="0" refY="0"><path style="fill:context-stroke;fill-rule:evenodd;stroke:context-stroke;stroke-width:.625;stroke-linejoin:round" id="path1933-80-2-6-6" d="M 8.7185878,4.0337352 -2.2072895,0.01601326 8.7185884,-4.0017078 c -1.7454984,2.3720609 -1.7354408,5.6174519 -6e-7,8.035443 z" transform="matrix(-1.1,0,0,-1.1,-1.1,0)"/></marker><marker style="overflow:visible" id="Arrow2Lend-6" orient="auto" refX="0" refY="0"><path style="fill:context-stroke;fill-rule:evenodd;stroke:context-stroke;stroke-width:.625;stroke-linejoin:round" id="path1933-4" d="M 8.7185878,4.0337352 -2.2072895,0.01601326 8.7185884,-4.0017078 c -1.7454984,2.3720609 -1.7354408,5.6174519 -6e-7,8.035443 z" transform="matrix(-1.1,0,0,-1.1,-1.1,0)"/></marker><marker style="overflow:visible" id="Arrow2Lend-93" orient="auto" refX="0" refY="0"><path style="fill:context-stroke;fill-rule:evenodd;stroke:context-stroke;stroke-width:.625;stroke-linejoin:round" id="path1933-65" d="M 8.7185878,4.0337352 -2.2072895,0.01601326 8.7185884,-4.0017078 c -1.7454984,2.3720609 -1.7354408,5.6174519 -6e-7,8.035443 z" transform="matrix(-1.1,0,0,-1.1,-1.1,0)"/></marker><marker style="overflow:visible" id="Arrow2Lend-93-9" orient="auto" refX="0" refY="0"><path style="fill:context-stroke;fill-rule:evenodd;stroke:context-stroke;stroke-width:.625;stroke-linejoin:round" id="path1933-65-1" d="M 8.7185878,4.0337352 -2.2072895,0.01601326 8.7185884,-4.0017078 c -1.7454984,2.3720609 -1.7354408,5.6174519 -6e-7,8.035443 z" transform="matrix(-1.1,0,0,-1.1,-1.1,0)"/></marker><marker style="overflow:visible" id="Arrow2Lend-93-3" orient="auto" refX="0" refY="0"><path style="fill:context-stroke;fill-rule:evenodd;stroke:context-stroke;stroke-width:.625;stroke-linejoin:round" id="path1933-65-2" d="M 8.7185878,4.0337352 -2.2072895,0.01601326 8.7185884,-4.0017078 c -1.7454984,2.3720609 -1.7354408,5.6174519 -6e-7,8.035443 z" transform="matrix(-1.1,0,0,-1.1,-1.1,0)"/></marker><marker style="overflow:visible" id="Arrow2Lend-93-3-0" orient="auto" refX="0" refY="0"><path style="fill:context-stroke;fill-rule:evenodd;stroke:context-stroke;stroke-width:.625;stroke-linejoin:round" id="path1933-65-2-7" d="M 8.7185878,4.0337352 -2.2072895,0.01601326 8.7185884,-4.0017078 c -1.7454984,2.3720609 -1.7354408,5.6174519 -6e-7,8.035443 z" transform="matrix(-1.1,0,0,-1.1,-1.1,0)"/></marker><marker style="overflow:visible" id="Arrow2Lend-93-3-9" orient="auto" refX="0" refY="0"><path style="fill:context-stroke;fill-rule:evenodd;stroke:context-stroke;stroke-width:.625;stroke-linejoin:round" id="path1933-65-2-3" d="M 8.7185878,4.0337352 -2.2072895,0.01601326 8.7185884,-4.0017078 c -1.7454984,2.3720609 -1.7354408,5.6174519 -6e-7,8.035443 z" transform="matrix(-1.1,0,0,-1.1,-1.1,0)"/></marker><marker style="overflow:visible" id="Arrow2Lend-98-4" orient="auto" refX="0" refY="0"><path style="fill:context-stroke;fill-rule:evenodd;stroke:context-stroke;stroke-width:.625;stroke-linejoin:round" id="path1933-6-6" d="M 8.7185878,4.0337352 -2.2072895,0.01601326 8.7185884,-4.0017078 c -1.7454984,2.3720609 -1.7354408,5.6174519 -6e-7,8.035443 z" transform="matrix(-1.1,0,0,-1.1,-1.1,0)"/></marker></defs><g id="layer1"><rect style="fill:none;stroke-width:.264583" id="rect57" width="101.55" height="51.733" x="19.16" y="16.095"/><rect style="fill:none;fill-opacity:1;stroke:#000;stroke-width:.252801;stroke-miterlimit:4;stroke-dasharray:none;stroke-opacity:1" id="rect10214-3-7-1" width="42.333" height="10.583" x="39.688" y="132.292"/><rect style="fill:none;fill-opacity:1;stroke:#000;stroke-width:.252801;stroke-miterlimit:4;stroke-dasharray:none;stroke-opacity:1" id="rect10214-3-7-1-0" width="42.333" height="10.583" x="39.688" y="116.416"/><rect style="fill:none;fill-opacity:1;stroke:#000;stroke-width:.252801;stroke-miterlimit:4;stroke-dasharray:none;stroke-opacity:1" id="rect10214-3-7-1-0-1" width="42.333" height="10.583" x="39.688" y="100.541"/><rect style="fill:none;fill-opacity:1;stroke:#000;stroke-width:.252801;stroke-miterlimit:4;stroke-dasharray:none;stroke-opacity:1" id="rect10214-3-7-1-7" width="42.333" height="10.583" x="92.604" y="206.375"/><rect style="fill:none;fill-opacity:1;stroke:#000;stroke-width:.252801;stroke-miterlimit:4;stroke-dasharray:none;stroke-opacity:1" id="rect10214-3-7-1-7-6" width="42.333" height="10.583" x="71.437" y="259.291"/><rect style="fill:none;fill-opacity:1;stroke:#000;stroke-width:.252801;stroke-miterlimit:4;stroke-dasharray:none;stroke-opacity:1" id="rect10214-3-7-1-7-2" width="42.333" height="10.583" x="39.688" y="179.917"/><rect style="fill:none;fill-opacity:1;stroke:#000;stroke-width:.252801;stroke-miterlimit:4;stroke-dasharray:none;stroke-opacity:1" id="rect10214-3-7-1-0-2" width="42.333" height="10.583" x="39.688" y="164.042"/><rect style="fill:none;fill-opacity:1;stroke:#000;stroke-width:.252801;stroke-miterlimit:4;stroke-dasharray:none;stroke-opacity:1" id="rect10214-3-7-1-0-1-7" width="42.333" height="10.583" x="39.688" y="148.167"/><rect style="fill:none;fill-opacity:1;stroke:#000;stroke-width:.253;stroke-miterlimit:4;stroke-dasharray:none;stroke-opacity:1" id="rect10214-3-7-1-0-1-0" width="42.333" height="10.583" x="39.688" y="84.666"/><path style="fill:red;stroke:#000;stroke-width:.224853px;stroke-linecap:butt;stroke-linejoin:miter;stroke-opacity:1;fill-opacity:.39676112" id="path12604" d="m 76.729174,251.35391 h 31.749986 l 18.52083,-26.45833 h -26.45833 l -7.937496,10.58333 -7.93749,-10.58333 h -26.45834 z"/><path style="fill:none;stroke:#000;stroke-width:.264583px;stroke-linecap:butt;stroke-linejoin:miter;stroke-opacity:1;marker-end:url(#Arrow2Lend)" id="path403" d="m 92.604164,269.87475 v 5.29166 H 39.687499 v -58.20833 h 34.395835 v 7.9375"/><path style="fill:none;stroke:#000;stroke-width:.264583px;stroke-linecap:butt;stroke-linejoin:miter;stroke-opacity:1;marker-end:url(#Arrow2Lend-0)" id="path405" d="m 92.604164,250.82474 v 7.9375"/><path style="fill:none;stroke:#000;stroke-width:.264583px;stroke-linecap:butt;stroke-linejoin:miter;stroke-opacity:1;marker-end:url(#Arrow2Lend-98)" id="path407" d="m 113.77082,216.95808 v 7.9375"/><path style="fill:#3cff00;stroke:#000;stroke-width:.257649px;stroke-linecap:butt;stroke-linejoin:miter;stroke-opacity:1;fill-opacity:.5" id="path459" d="M 7.9374976,291.04141 H 153.45833 l -1e-5,-211.666618 h -5.01795 V 285.74975 H 12.955459 V 79.374792 H 7.9374976 Z"/><path style="fill:none;fill-rule:evenodd;stroke:#000;stroke-width:2.31193;stroke-miterlimit:4;stroke-dasharray:none;stroke-opacity:1" id="path655" d="m 510,320 -45,25.98076 -45,25.98076 0,-51.96152 0,-51.96152 45,25.98076 z" transform="matrix(0.11759261,0,0,0.10183819,64.381934,57.369905)"/><path style="fill:none;stroke:#000;stroke-width:.222294px;stroke-linecap:butt;stroke-linejoin:miter;stroke-opacity:1;marker-end:url(#Arrow2Lend)" id="path1900" d="M 82.020834,89.958125 H 113.77083"/><path style="fill:none;stroke:#000;stroke-width:.192512px;stroke-linecap:butt;stroke-linejoin:miter;stroke-opacity:1;marker-end:url(#Arrow2Lend-04)" id="path1900-5" d="m 124.35417,89.958126 h 23.81249"/><path style="fill:none;fill-rule:evenodd;stroke:#000;stroke-width:2.31193;stroke-miterlimit:4;stroke-dasharray:none;stroke-opacity:1" id="path655-6" d="m 510,320 -45,25.98076 -45,25.98076 0,-51.96152 0,-51.96152 45,25.98076 z" transform="matrix(0.11759261,0,0,0.10183819,64.381934,73.244905)"/><path style="fill:none;stroke:#000;stroke-width:.222294px;stroke-linecap:butt;stroke-linejoin:miter;stroke-opacity:1;marker-end:url(#Arrow2Lend-74)" id="path1900-4" d="M 82.020834,105.83308 H 113.77083"/><path style="fill:none;stroke:#000;stroke-width:.192512px;stroke-linecap:butt;stroke-linejoin:miter;stroke-opacity:1;marker-end:url(#Arrow2Lend-04-4)" id="path1900-5-8" d="m 124.35417,105.83308 h 23.81249"/><path style="fill:none;fill-rule:evenodd;stroke:#000;stroke-width:2.31193;stroke-miterlimit:4;stroke-dasharray:none;stroke-opacity:1" id="path655-9" d="m 510,320 -45,25.98076 -45,25.98076 0,-51.96152 0,-51.96152 45,25.98076 z" transform="matrix(0.11759261,0,0,0.10183819,64.381934,89.119907)"/><path style="fill:none;stroke:#000;stroke-width:.222294px;stroke-linecap:butt;stroke-linejoin:miter;stroke-opacity:1;marker-end:url(#Arrow2Lend-79)" id="path1900-51" d="M 82.020834,121.70808 H 113.77083"/><path style="fill:none;stroke:#000;stroke-width:.192512px;stroke-linecap:butt;stroke-linejoin:miter;stroke-opacity:1;marker-end:url(#Arrow2Lend-04-40)" id="path1900-5-85" d="m 124.35417,121.70808 h 23.81249"/><path style="fill:none;fill-rule:evenodd;stroke:#000;stroke-width:2.31193;stroke-miterlimit:4;stroke-dasharray:none;stroke-opacity:1" id="path655-95" d="m 510,320 -45,25.98076 -45,25.98076 0,-51.96152 0,-51.96152 45,25.98076 z" transform="matrix(0.11759261,0,0,0.10183819,64.381934,104.99486)"/><path style="fill:none;stroke:#000;stroke-width:.222294px;stroke-linecap:butt;stroke-linejoin:miter;stroke-opacity:1;marker-end:url(#Arrow2Lend-5)" id="path1900-8" d="M 82.020834,137.58308 H 113.77083"/><path style="fill:none;stroke:#000;stroke-width:.192512px;stroke-linecap:butt;stroke-linejoin:miter;stroke-opacity:1;marker-end:url(#Arrow2Lend-04-7)" id="path1900-5-0" d="m 124.35417,137.58308 h 23.81249"/><path style="fill:none;fill-rule:evenodd;stroke:#000;stroke-width:2.31193;stroke-miterlimit:4;stroke-dasharray:none;stroke-opacity:1" id="path655-6-1" d="m 510,320 -45,25.98076 -45,25.98076 0,-51.96152 0,-51.96152 45,25.98076 z" transform="matrix(0.11759261,0,0,0.10183819,64.381934,120.86986)"/><path style="fill:none;stroke:#000;stroke-width:.222294px;stroke-linecap:butt;stroke-linejoin:miter;stroke-opacity:1;marker-end:url(#Arrow2Lend-74-5)" id="path1900-4-3" d="M 82.020834,153.45808 H 113.77083"/><path style="fill:none;stroke:#000;stroke-width:.192512px;stroke-linecap:butt;stroke-linejoin:miter;stroke-opacity:1;marker-end:url(#Arrow2Lend-04-4-6)" id="path1900-5-8-6" d="m 124.35417,153.45808 h 23.81249"/><path style="fill:none;fill-rule:evenodd;stroke:#000;stroke-width:2.31193;stroke-miterlimit:4;stroke-dasharray:none;stroke-opacity:1" id="path655-9-5" d="m 510,320 -45,25.98076 -45,25.98076 0,-51.96152 0,-51.96152 45,25.98076 z" transform="matrix(0.11759261,0,0,0.10183819,64.381934,136.74486)"/><path style="fill:none;stroke:#000;stroke-width:.222294px;stroke-linecap:butt;stroke-linejoin:miter;stroke-opacity:1;marker-end:url(#Arrow2Lend-79-5)" id="path1900-51-8" d="M 82.020834,169.33308 H 113.77083"/><path style="fill:none;stroke:#000;stroke-width:.192512px;stroke-linecap:butt;stroke-linejoin:miter;stroke-opacity:1;marker-end:url(#Arrow2Lend-04-40-6)" id="path1900-5-85-1" d="m 124.35417,169.33308 h 23.81249"/><path style="fill:none;fill-rule:evenodd;stroke:#000;stroke-width:2.31193;stroke-miterlimit:4;stroke-dasharray:none;stroke-opacity:1" id="path655-9-5-1" d="m 510,320 -45,25.98076 -45,25.98076 0,-51.96152 0,-51.96152 45,25.98076 z" transform="matrix(0.11759261,0,0,0.10183819,64.381934,152.61986)"/><path style="fill:none;stroke:#000;stroke-width:.222294px;stroke-linecap:butt;stroke-linejoin:miter;stroke-opacity:1;marker-end:url(#Arrow2Lend-79-5-7)" id="path1900-51-8-4" d="M 82.020834,185.20808 H 113.77083"/><path style="fill:none;stroke:#000;stroke-width:.192512px;stroke-linecap:butt;stroke-linejoin:miter;stroke-opacity:1;marker-end:url(#Arrow2Lend-04-40-6-2)" id="path1900-5-85-1-3" d="m 124.35417,185.20808 h 23.81249"/><path style="fill:none;stroke:#000;stroke-width:.232055px;stroke-linecap:butt;stroke-linejoin:miter;stroke-opacity:1;marker-end:url(#Arrow2Lend)" id="path3318" d="M 13.229166,89.958125 H 39.687499"/><path style="fill:none;stroke:#000;stroke-width:.232055px;stroke-linecap:butt;stroke-linejoin:miter;stroke-opacity:1;marker-end:url(#Arrow2Lend-93)" id="path3318-5" d="M 13.229166,121.70808 H 39.687499"/><path style="fill:none;stroke:#000;stroke-width:.232055px;stroke-linecap:butt;stroke-linejoin:miter;stroke-opacity:1;marker-end:url(#Arrow2Lend-93-9)" id="path3318-5-8" d="M 13.229166,137.58308 H 39.687499"/><path style="fill:none;stroke:#000;stroke-width:.232055px;stroke-linecap:butt;stroke-linejoin:miter;stroke-opacity:1;marker-end:url(#Arrow2Lend-6)" id="path3318-4" d="M 13.229166,105.83308 H 39.687499"/><path style="fill:none;stroke:#000;stroke-width:.232055px;stroke-linecap:butt;stroke-linejoin:miter;stroke-opacity:1;marker-end:url(#Arrow2Lend-93-3)" id="path3318-5-9" d="M 13.229166,153.45808 H 39.687499"/><path style="fill:none;stroke:#000;stroke-width:.232055px;stroke-linecap:butt;stroke-linejoin:miter;stroke-opacity:1;marker-end:url(#Arrow2Lend-93-3-0)" id="path3318-5-9-8" d="M 13.229166,169.33308 H 39.687499"/><path style="fill:none;stroke:#000;stroke-width:.232055px;stroke-linecap:butt;stroke-linejoin:miter;stroke-opacity:1;marker-end:url(#Arrow2Lend-93-3-9)" id="path3318-5-9-0" d="M 13.229166,185.20808 H 39.687499"/><g id="g492" transform="matrix(0.92682927,0,0,1,-3.9364854,-2.0314062e-4)"><path style="fill:none;stroke:#000;stroke-width:.264583px;stroke-linecap:butt;stroke-linejoin:miter;stroke-opacity:1;marker-end:url(#Arrow2Lend-98-4)" id="path407-9" d="m 127,198.4375 v 7.9375"/><path style="fill:none;stroke:#000;stroke-width:.264583px;stroke-linecap:butt;stroke-linejoin:miter;stroke-opacity:1" id="path292" d="M 18.520833,198.43749 H 127 v 0"/></g><rect style="fill:none;fill-rule:evenodd;stroke:#000;stroke-width:.26354;stroke-miterlimit:4;stroke-dasharray:none;stroke-opacity:1" id="rect1618" width="39.687" height="15.875" x="166.688" y="230.188"/><path style="fill:none;stroke:#000;stroke-width:.251278px;stroke-linecap:butt;stroke-linejoin:miter;stroke-opacity:1;marker-end:url(#Arrow2Lend-9)" id="path3114" d="m 118.00417,238.12501 48.68333,-1e-5"/><path style="fill:none;stroke:#000;stroke-width:.264583px;stroke-linecap:butt;stroke-linejoin:miter;stroke-opacity:1;marker-end:url(#Arrow2Lend-9)" id="path4615" d="m 171.97916,246.06249 v 34.39584 H 34.395833 v -42.33334 h 31.749999 v 0"/><path style="fill:none;stroke:#000;stroke-width:.264583px;stroke-linecap:butt;stroke-linejoin:miter;stroke-opacity:1;marker-end:url(#Arrow2Lend-2)" id="path5065" d="M 13.229166,264.58333 H 71.437499"/></g></svg>